<svg width="32" height="26" viewBox="0 0 32 26" fill="none" xmlns="http://www.w3.org/2000/svg">
<g clip-path="url(#clip0_57_1296)">
<path fill-rule="evenodd" clip-rule="evenodd" d="M15.6253 5.96389L9.78002 6.01199C8.20391 6.02678 7.07233 6.37452 6.4 7.0293C5.75706 7.65818 5.42641 8.70879 5.42641 10.1626V14.8756H0V10.1626C0 7.18467 0.892767 4.81711 2.62687 3.12652C4.32423 1.46922 6.71229 0.596182 9.73961 0.570287L10.4744 0.562888C10.6654 0.522196 10.8602 0.5 11.0622 0.5H19.0824C19.9826 0.5 20.8606 0.536993 21.7056 0.614679C22.558 0.692365 23.2891 0.810743 23.8953 0.969814H23.9063C24.7477 1.19177 25.5412 1.50991 26.287 1.92054C27.0475 2.33856 27.7346 2.83797 28.3481 3.42246C28.4032 3.47425 28.4547 3.52604 28.5024 3.58153C29.0609 4.12903 29.5458 4.71352 29.9536 5.33871C30.4165 6.04158 30.7986 6.79624 31.1036 7.60269C31.3975 8.38325 31.6216 9.26369 31.7722 10.2514C31.9192 11.2058 31.9927 12.1862 31.9927 13.1924C31.9927 15.1197 31.7061 16.8251 31.1366 18.3196H31.144C30.806 19.2112 30.3761 20.0398 29.8581 20.8056C29.3327 21.5861 28.7302 22.2705 28.0542 22.8587L27.9917 22.9105C27.459 23.3692 26.8455 23.7724 26.1511 24.1239C25.4604 24.4753 24.7256 24.7601 23.9431 24.9858C23.3258 25.1634 22.6057 25.2928 21.7791 25.3816C20.9966 25.463 20.1773 25.5074 19.3176 25.5074H11.0622C9.56326 25.5074 8.34719 24.2829 8.34719 22.7736V11.9272C8.34719 10.4179 9.56326 9.1934 11.0622 9.1934C11.1871 9.1934 11.3084 9.2008 11.4259 9.2193V9.1934H17.9986C22.6829 9.1934 23.1568 11.0727 23.1568 14.3096C23.1568 14.698 23.1495 14.4094 23.1385 14.9273V15.2196L23.1054 17.3948L17.701 17.3319L17.7341 14.846C17.7341 14.7535 17.7341 14.9421 17.7341 14.661H13.7773V20.0361H19.3212C20.0817 20.0361 20.721 20.0102 21.2317 19.9547C21.702 19.9066 22.1098 19.8289 22.4625 19.7291C22.9768 19.5811 23.3993 19.422 23.7373 19.2519C24.0202 19.1076 24.2664 18.9522 24.4684 18.7783L24.5162 18.7339C24.8505 18.4454 25.1408 18.1162 25.3869 17.7462C25.6441 17.3652 25.8755 16.9065 26.0776 16.3701H26.085L26.0886 16.359C26.4083 15.5266 26.5662 14.4723 26.5662 13.185C26.5662 12.3674 26.5222 11.6645 26.4303 11.0764C26.3458 10.5215 26.2136 10.0073 26.0372 9.53744C25.8682 9.09352 25.6661 8.69399 25.4383 8.34256C25.2289 8.02072 25.0012 7.73957 24.7587 7.49541C24.7183 7.46212 24.6778 7.42513 24.6374 7.38813C24.3435 7.11068 24.0312 6.87763 23.7006 6.69636C23.3552 6.50769 22.9621 6.35232 22.5286 6.23764C22.1906 6.14516 21.7607 6.07857 21.239 6.03418C20.71 5.98609 19.9899 5.96389 19.0788 5.96389H15.6216H15.6253Z" fill="#0267FF"/>
</g>
<defs>
<clipPath id="clip0_57_1296">
<rect width="32" height="25" fill="white" transform="translate(0 0.5)"/>
</clipPath>
</defs>
</svg>
