<svg width="470" height="44" viewBox="0 0 470 44" fill="none" xmlns="http://www.w3.org/2000/svg">
<rect x="1" y="0.5" width="468" height="43" rx="21.5" stroke="url(#paint0_linear_10_256)"/>
<rect x="12.5" y="21" width="22" height="2" rx="1" fill="url(#paint1_linear_10_256)"/>
<path d="M50.386 28.216C49.522 28.216 48.736 28.042 48.028 27.694C47.332 27.346 46.774 26.818 46.354 26.11C45.934 25.39 45.724 24.472 45.724 23.356V15.4H47.236V23.374C47.236 24.19 47.368 24.856 47.632 25.372C47.908 25.888 48.286 26.266 48.766 26.506C49.246 26.746 49.798 26.866 50.422 26.866C51.058 26.866 51.61 26.746 52.078 26.506C52.546 26.266 52.912 25.888 53.176 25.372C53.44 24.856 53.572 24.19 53.572 23.374V15.4H55.084V23.356C55.084 24.472 54.874 25.39 54.454 26.11C54.034 26.818 53.47 27.346 52.762 27.694C52.054 28.042 51.262 28.216 50.386 28.216ZM59.4449 28V15.4H60.9569L67.6709 25.498V15.4H69.1829V28H67.6709L60.9569 17.902V28H59.4449ZM73.6902 28V15.4H75.2022V26.794H81.0702V28H73.6902ZM84.9824 28V15.4H92.7764V16.642H86.4944V21.034H92.2364V22.258H86.4944V26.758H92.7764V28H84.9824ZM96.1502 28L100.794 15.4H102.396L107.022 28H105.42L101.586 17.29L97.7342 28H96.1502ZM98.2742 24.76L98.7062 23.536H104.412L104.844 24.76H98.2742ZM114.727 28.216C113.803 28.216 112.999 28.048 112.315 27.712C111.631 27.376 111.103 26.908 110.731 26.308C110.359 25.708 110.173 25.012 110.173 24.22H111.757C111.757 24.712 111.871 25.168 112.099 25.588C112.327 25.996 112.657 26.326 113.089 26.578C113.533 26.818 114.079 26.938 114.727 26.938C115.291 26.938 115.771 26.848 116.167 26.668C116.575 26.476 116.881 26.218 117.085 25.894C117.301 25.57 117.409 25.204 117.409 24.796C117.409 24.304 117.301 23.908 117.085 23.608C116.881 23.296 116.599 23.044 116.239 22.852C115.879 22.66 115.459 22.492 114.979 22.348C114.511 22.192 114.019 22.03 113.503 21.862C112.507 21.526 111.775 21.106 111.307 20.602C110.839 20.098 110.605 19.444 110.605 18.64C110.605 17.956 110.761 17.356 111.073 16.84C111.397 16.324 111.853 15.922 112.441 15.634C113.041 15.334 113.749 15.184 114.565 15.184C115.369 15.184 116.065 15.334 116.653 15.634C117.253 15.934 117.721 16.348 118.057 16.876C118.393 17.392 118.561 17.992 118.561 18.676H116.977C116.977 18.328 116.887 17.986 116.707 17.65C116.527 17.314 116.251 17.038 115.879 16.822C115.519 16.594 115.063 16.48 114.511 16.48C114.055 16.468 113.647 16.546 113.287 16.714C112.939 16.87 112.663 17.098 112.459 17.398C112.267 17.698 112.171 18.064 112.171 18.496C112.171 18.904 112.255 19.234 112.423 19.486C112.603 19.738 112.855 19.954 113.179 20.134C113.515 20.302 113.905 20.458 114.349 20.602C114.793 20.746 115.285 20.908 115.825 21.088C116.437 21.292 116.977 21.544 117.445 21.844C117.925 22.132 118.297 22.504 118.561 22.96C118.837 23.416 118.975 23.998 118.975 24.706C118.975 25.306 118.813 25.876 118.489 26.416C118.177 26.944 117.709 27.376 117.085 27.712C116.461 28.048 115.675 28.216 114.727 28.216ZM131.001 28V15.4H132.513V28H131.001ZM122.955 28V15.4H124.467V28H122.955ZM124.179 22.204V20.962H131.379V22.204H124.179ZM146.54 28V16.642H142.778V15.4H151.814V16.642H148.052V28H146.54ZM163.524 28V15.4H165.036V28H163.524ZM155.478 28V15.4H156.99V28H155.478ZM156.702 22.204V20.962H163.902V22.204H156.702ZM169.53 28V15.4H177.324V16.642H171.042V21.034H176.784V22.258H171.042V26.758H177.324V28H169.53ZM188.089 28V15.4H192.193C193.189 15.4 194.005 15.568 194.641 15.904C195.289 16.228 195.763 16.666 196.063 17.218C196.375 17.77 196.531 18.4 196.531 19.108C196.531 19.792 196.375 20.416 196.063 20.98C195.763 21.532 195.295 21.976 194.659 22.312C194.023 22.648 193.201 22.816 192.193 22.816H189.601V28H188.089ZM189.601 21.538H192.175C193.183 21.538 193.903 21.316 194.335 20.872C194.767 20.428 194.983 19.84 194.983 19.108C194.983 18.328 194.767 17.728 194.335 17.308C193.903 16.876 193.183 16.66 192.175 16.66H189.601V21.538ZM205.946 28.216C204.734 28.216 203.666 27.946 202.742 27.406C201.83 26.854 201.116 26.092 200.6 25.12C200.096 24.136 199.844 22.996 199.844 21.7C199.844 20.416 200.096 19.288 200.6 18.316C201.116 17.332 201.83 16.564 202.742 16.012C203.666 15.46 204.734 15.184 205.946 15.184C207.182 15.184 208.256 15.46 209.168 16.012C210.08 16.564 210.788 17.332 211.292 18.316C211.808 19.288 212.066 20.416 212.066 21.7C212.066 22.996 211.808 24.136 211.292 25.12C210.788 26.092 210.08 26.854 209.168 27.406C208.256 27.946 207.182 28.216 205.946 28.216ZM205.946 26.884C206.858 26.884 207.656 26.68 208.34 26.272C209.036 25.852 209.57 25.258 209.942 24.49C210.326 23.71 210.518 22.78 210.518 21.7C210.518 20.62 210.326 19.696 209.942 18.928C209.57 18.148 209.036 17.554 208.34 17.146C207.656 16.738 206.858 16.534 205.946 16.534C205.046 16.534 204.248 16.738 203.552 17.146C202.868 17.554 202.334 18.148 201.95 18.928C201.578 19.696 201.392 20.62 201.392 21.7C201.392 22.78 201.578 23.71 201.95 24.49C202.334 25.258 202.868 25.852 203.552 26.272C204.248 26.68 205.046 26.884 205.946 26.884ZM218.204 28L214.748 15.4H216.368L219.086 26.2L222.164 15.4H223.856L226.862 26.236L229.616 15.4H231.236L227.708 28H225.98L222.974 17.578L219.896 28H218.204ZM234.832 28V15.4H242.626V16.642H236.344V21.034H242.086V22.258H236.344V26.758H242.626V28H234.832ZM246.81 28V15.4H250.878C251.862 15.4 252.666 15.568 253.29 15.904C253.914 16.228 254.376 16.666 254.676 17.218C254.976 17.77 255.126 18.394 255.126 19.09C255.126 19.762 254.97 20.38 254.658 20.944C254.358 21.508 253.89 21.958 253.254 22.294C252.618 22.63 251.802 22.798 250.806 22.798H248.322V28H246.81ZM253.47 28L250.698 22.366H252.39L255.252 28H253.47ZM248.322 21.61H250.77C251.73 21.61 252.432 21.376 252.876 20.908C253.332 20.44 253.56 19.84 253.56 19.108C253.56 18.364 253.338 17.776 252.894 17.344C252.462 16.9 251.748 16.678 250.752 16.678H248.322V21.61ZM271.495 28.216C270.283 28.216 269.215 27.946 268.291 27.406C267.379 26.854 266.665 26.092 266.149 25.12C265.645 24.136 265.393 22.996 265.393 21.7C265.393 20.416 265.645 19.288 266.149 18.316C266.665 17.332 267.379 16.564 268.291 16.012C269.215 15.46 270.283 15.184 271.495 15.184C272.731 15.184 273.805 15.46 274.717 16.012C275.629 16.564 276.337 17.332 276.841 18.316C277.357 19.288 277.615 20.416 277.615 21.7C277.615 22.996 277.357 24.136 276.841 25.12C276.337 26.092 275.629 26.854 274.717 27.406C273.805 27.946 272.731 28.216 271.495 28.216ZM271.495 26.884C272.407 26.884 273.205 26.68 273.889 26.272C274.585 25.852 275.119 25.258 275.491 24.49C275.875 23.71 276.067 22.78 276.067 21.7C276.067 20.62 275.875 19.696 275.491 18.928C275.119 18.148 274.585 17.554 273.889 17.146C273.205 16.738 272.407 16.534 271.495 16.534C270.595 16.534 269.797 16.738 269.101 17.146C268.417 17.554 267.883 18.148 267.499 18.928C267.127 19.696 266.941 20.62 266.941 21.7C266.941 22.78 267.127 23.71 267.499 24.49C267.883 25.258 268.417 25.852 269.101 26.272C269.797 26.68 270.595 26.884 271.495 26.884ZM281.618 28V15.4H289.286V16.642H283.13V21.07H288.368V22.294H283.13V28H281.618ZM302.584 28V16.642H298.822V15.4H307.858V16.642H304.096V28H302.584ZM316.488 28.216C315.276 28.216 314.208 27.946 313.284 27.406C312.372 26.854 311.658 26.092 311.142 25.12C310.638 24.136 310.386 22.996 310.386 21.7C310.386 20.416 310.638 19.288 311.142 18.316C311.658 17.332 312.372 16.564 313.284 16.012C314.208 15.46 315.276 15.184 316.488 15.184C317.724 15.184 318.798 15.46 319.71 16.012C320.622 16.564 321.33 17.332 321.834 18.316C322.35 19.288 322.608 20.416 322.608 21.7C322.608 22.996 322.35 24.136 321.834 25.12C321.33 26.092 320.622 26.854 319.71 27.406C318.798 27.946 317.724 28.216 316.488 28.216ZM316.488 26.884C317.4 26.884 318.198 26.68 318.882 26.272C319.578 25.852 320.112 25.258 320.484 24.49C320.868 23.71 321.06 22.78 321.06 21.7C321.06 20.62 320.868 19.696 320.484 18.928C320.112 18.148 319.578 17.554 318.882 17.146C318.198 16.738 317.4 16.534 316.488 16.534C315.588 16.534 314.79 16.738 314.094 17.146C313.41 17.554 312.876 18.148 312.492 18.928C312.12 19.696 311.934 20.62 311.934 21.7C311.934 22.78 312.12 23.71 312.492 24.49C312.876 25.258 313.41 25.852 314.094 26.272C314.79 26.68 315.588 26.884 316.488 26.884ZM326.611 28V15.4H328.123V21.106L333.379 15.4H335.287L330.607 20.422L335.359 28H333.523L329.527 21.592L328.123 23.086V28H326.611ZM338.923 28V15.4H346.717V16.642H340.435V21.034H346.177V22.258H340.435V26.758H346.717V28H338.923ZM350.901 28V15.4H352.413L359.127 25.498V15.4H360.639V28H359.127L352.413 17.902V28H350.901ZM365.146 28V15.4H366.658V28H365.146ZM370.625 28V26.812L376.907 16.714H370.715V15.4H378.671V16.588L372.371 26.686H378.743V28H370.625ZM381.893 28L386.537 15.4H388.139L392.765 28H391.163L387.329 17.29L383.477 28H381.893ZM384.017 24.76L384.449 23.536H390.155L390.587 24.76H384.017ZM397.984 28V16.642H394.222V15.4H403.258V16.642H399.496V28H397.984ZM406.922 28V15.4H408.434V28H406.922ZM418.557 28.216C417.345 28.216 416.277 27.946 415.353 27.406C414.441 26.854 413.727 26.092 413.211 25.12C412.707 24.136 412.455 22.996 412.455 21.7C412.455 20.416 412.707 19.288 413.211 18.316C413.727 17.332 414.441 16.564 415.353 16.012C416.277 15.46 417.345 15.184 418.557 15.184C419.793 15.184 420.867 15.46 421.779 16.012C422.691 16.564 423.399 17.332 423.903 18.316C424.419 19.288 424.677 20.416 424.677 21.7C424.677 22.996 424.419 24.136 423.903 25.12C423.399 26.092 422.691 26.854 421.779 27.406C420.867 27.946 419.793 28.216 418.557 28.216ZM418.557 26.884C419.469 26.884 420.267 26.68 420.951 26.272C421.647 25.852 422.181 25.258 422.553 24.49C422.937 23.71 423.129 22.78 423.129 21.7C423.129 20.62 422.937 19.696 422.553 18.928C422.181 18.148 421.647 17.554 420.951 17.146C420.267 16.738 419.469 16.534 418.557 16.534C417.657 16.534 416.859 16.738 416.163 17.146C415.479 17.554 414.945 18.148 414.561 18.928C414.189 19.696 414.003 20.62 414.003 21.7C414.003 22.78 414.189 23.71 414.561 24.49C414.945 25.258 415.479 25.852 416.163 26.272C416.859 26.68 417.657 26.884 418.557 26.884ZM428.68 28V15.4H430.192L436.906 25.498V15.4H438.418V28H436.906L430.192 17.902V28H428.68Z" fill="url(#paint2_linear_10_256)"/>
<defs>
<linearGradient id="paint0_linear_10_256" x1="171.5" y1="-15" x2="486.842" y2="90.6583" gradientUnits="userSpaceOnUse">
<stop stop-color="#8BB9FF"/>
<stop offset="0.98524" stop-color="white"/>
</linearGradient>
<linearGradient id="paint1_linear_10_256" x1="23.5" y1="21" x2="23.5" y2="23" gradientUnits="userSpaceOnUse">
<stop stop-color="white"/>
<stop offset="1" stop-color="#0267FF"/>
</linearGradient>
<linearGradient id="paint2_linear_10_256" x1="251" y1="12" x2="251" y2="32" gradientUnits="userSpaceOnUse">
<stop stop-color="white"/>
<stop offset="1" stop-color="#0267FF"/>
</linearGradient>
</defs>
</svg>
