<svg width="116" height="32" viewBox="0 0 116 32" fill="none" xmlns="http://www.w3.org/2000/svg">
<g clip-path="url(#clip0_28_205)">
<path fill-rule="evenodd" clip-rule="evenodd" d="M15.6253 8.96389L9.78002 9.01199C8.20391 9.02678 7.07233 9.37452 6.4 10.0293C5.75706 10.6582 5.42641 11.7088 5.42641 13.1626V17.8756H0V13.1626C0 10.1847 0.892767 7.81711 2.62687 6.12652C4.32423 4.46922 6.71229 3.59618 9.73961 3.57029L10.4744 3.56289C10.6654 3.5222 10.8602 3.5 11.0622 3.5H19.0824C19.9826 3.5 20.8606 3.53699 21.7056 3.61468C22.558 3.69236 23.2891 3.81074 23.8953 3.96981H23.9063C24.7477 4.19177 25.5412 4.50991 26.287 4.92054C27.0475 5.33856 27.7346 5.83797 28.3481 6.42246C28.4032 6.47425 28.4547 6.52604 28.5024 6.58153C29.0609 7.12903 29.5458 7.71352 29.9536 8.33871C30.4165 9.04158 30.7986 9.79624 31.1036 10.6027C31.3975 11.3832 31.6216 12.2637 31.7722 13.2514C31.9192 14.2058 31.9927 15.1862 31.9927 16.1924C31.9927 18.1197 31.7061 19.8251 31.1366 21.3196H31.144C30.806 22.2112 30.3761 23.0398 29.8581 23.8056C29.3327 24.5861 28.7302 25.2705 28.0542 25.8587L27.9917 25.9105C27.459 26.3692 26.8455 26.7724 26.1511 27.1239C25.4604 27.4753 24.7256 27.7601 23.9431 27.9858C23.3258 28.1634 22.6057 28.2928 21.7791 28.3816C20.9966 28.463 20.1773 28.5074 19.3176 28.5074H11.0622C9.56326 28.5074 8.34719 27.2829 8.34719 25.7736V14.9272C8.34719 13.4179 9.56326 12.1934 11.0622 12.1934C11.1871 12.1934 11.3084 12.2008 11.4259 12.2193V12.1934H17.9986C22.6829 12.1934 23.1568 14.0727 23.1568 17.3096C23.1568 17.698 23.1495 17.4094 23.1385 17.9273V18.2196L23.1054 20.3948L17.701 20.3319L17.7341 17.846C17.7341 17.7535 17.7341 17.9421 17.7341 17.661H13.7773V23.0361H19.3212C20.0817 23.0361 20.721 23.0102 21.2317 22.9547C21.702 22.9066 22.1098 22.8289 22.4625 22.7291C22.9768 22.5811 23.3993 22.422 23.7373 22.2519C24.0202 22.1076 24.2664 21.9522 24.4684 21.7783L24.5162 21.7339C24.8505 21.4454 25.1408 21.1162 25.3869 20.7462C25.6441 20.3652 25.8755 19.9065 26.0776 19.3701H26.085L26.0886 19.359C26.4083 18.5266 26.5662 17.4723 26.5662 16.185C26.5662 15.3674 26.5222 14.6645 26.4303 14.0764C26.3458 13.5215 26.2136 13.0073 26.0372 12.5374C25.8682 12.0935 25.6661 11.694 25.4383 11.3426C25.2289 11.0207 25.0012 10.7396 24.7587 10.4954C24.7183 10.4621 24.6778 10.4251 24.6374 10.3881C24.3435 10.1107 24.0312 9.87763 23.7006 9.69636C23.3552 9.50769 22.9621 9.35232 22.5286 9.23764C22.1906 9.14516 21.7607 9.07857 21.239 9.03418C20.71 8.98609 19.9899 8.96389 19.0788 8.96389H15.6216H15.6253Z" fill="#0267FF"/>
</g>
<path d="M41.704 24V7.2H47.128C49.08 7.2 50.688 7.544 51.952 8.232C53.232 8.92 54.176 9.896 54.784 11.16C55.408 12.408 55.72 13.896 55.72 15.624C55.72 17.32 55.408 18.8 54.784 20.064C54.176 21.312 53.232 22.28 51.952 22.968C50.688 23.656 49.08 24 47.128 24H41.704ZM44.584 21.552H46.984C48.44 21.552 49.584 21.32 50.416 20.856C51.264 20.376 51.864 19.696 52.216 18.816C52.584 17.92 52.768 16.856 52.768 15.624C52.768 14.376 52.584 13.312 52.216 12.432C51.864 11.536 51.264 10.848 50.416 10.368C49.584 9.872 48.44 9.624 46.984 9.624H44.584V21.552ZM58.5321 24V7.2H69.3801V9.528H61.4121V14.352H68.6601V16.632H61.4121V21.672H69.3801V24H58.5321ZM71.3031 24L77.4471 7.2H80.6631L86.8071 24H83.7591L79.0311 10.56L74.3031 24H71.3031ZM74.0391 20.04L74.8071 17.76H83.0871L83.8551 20.04H74.0391ZM94.7581 24.288C93.5421 24.288 92.4621 24.072 91.5181 23.64C90.5741 23.208 89.8381 22.592 89.3101 21.792C88.7821 20.992 88.5101 20.04 88.4941 18.936H91.5421C91.5421 19.496 91.6701 20 91.9261 20.448C92.1981 20.88 92.5661 21.224 93.0301 21.48C93.5101 21.736 94.0861 21.864 94.7581 21.864C95.3341 21.864 95.8301 21.776 96.2461 21.6C96.6781 21.408 97.0061 21.144 97.2301 20.808C97.4701 20.456 97.5901 20.048 97.5901 19.584C97.5901 19.056 97.4621 18.624 97.2061 18.288C96.9661 17.936 96.6301 17.64 96.1981 17.4C95.7661 17.16 95.2701 16.952 94.7101 16.776C94.1501 16.584 93.5581 16.384 92.9341 16.176C91.6061 15.728 90.6061 15.16 89.9341 14.472C89.2621 13.768 88.9261 12.832 88.9261 11.664C88.9261 10.688 89.1581 9.848 89.6221 9.144C90.0861 8.44 90.7341 7.896 91.5661 7.512C92.4141 7.112 93.3901 6.912 94.4941 6.912C95.6141 6.912 96.5901 7.112 97.4221 7.512C98.2701 7.912 98.9341 8.472 99.4141 9.192C99.9101 9.896 100.166 10.744 100.182 11.736H97.1101C97.0941 11.32 96.9821 10.936 96.7741 10.584C96.5661 10.216 96.2621 9.92 95.8621 9.696C95.4781 9.456 95.0061 9.336 94.4461 9.336C93.9661 9.32 93.5341 9.4 93.1501 9.576C92.7821 9.736 92.4861 9.976 92.2621 10.296C92.0541 10.6 91.9501 10.984 91.9501 11.448C91.9501 11.896 92.0461 12.272 92.2381 12.576C92.4461 12.864 92.7421 13.112 93.1261 13.32C93.5101 13.512 93.9581 13.696 94.4701 13.872C94.9821 14.048 95.5421 14.24 96.1501 14.448C96.9821 14.72 97.7341 15.056 98.4061 15.456C99.0941 15.84 99.6381 16.344 100.038 16.968C100.438 17.592 100.638 18.4 100.638 19.392C100.638 20.256 100.414 21.064 99.9661 21.816C99.5181 22.552 98.8621 23.152 97.9981 23.616C97.1341 24.064 96.0541 24.288 94.7581 24.288ZM103.438 24V7.2H114.286V9.528H106.318V14.352H113.566V16.632H106.318V21.672H114.286V24H103.438Z" fill="white"/>
<defs>
<clipPath id="clip0_28_205">
<rect width="32" height="25" fill="white" transform="translate(0 3.5)"/>
</clipPath>
</defs>
</svg>
