<svg width="350" height="244" viewBox="0 0 350 244" fill="none" xmlns="http://www.w3.org/2000/svg">
<rect x="0.5" y="0.5" width="349" height="243" rx="15.5" fill="#02071D"/>
<rect x="0.5" y="0.5" width="349" height="243" rx="15.5" stroke="#454956"/>
<rect x="16.5" y="16.5" width="317" height="43" rx="7.5" stroke="white" stroke-opacity="0.15"/>
<path d="M31.304 43V34.348H28.406V33.2H35.616V34.348H32.704V43H31.304ZM38.9259 43.168C38.2632 43.168 37.6659 43.014 37.1339 42.706C36.6112 42.398 36.1959 41.9687 35.8879 41.418C35.5892 40.858 35.4399 40.214 35.4399 39.486C35.4399 38.7393 35.5939 38.0907 35.9019 37.54C36.2099 36.98 36.6299 36.546 37.1619 36.238C37.6939 35.93 38.2912 35.776 38.9539 35.776C39.6259 35.776 40.2232 35.93 40.7459 36.238C41.2686 36.546 41.6792 36.9753 41.9779 37.526C42.2859 38.0767 42.4399 38.7253 42.4399 39.472C42.4399 40.2187 42.2859 40.8673 41.9779 41.418C41.6792 41.9687 41.2639 42.398 40.7319 42.706C40.1999 43.014 39.5979 43.168 38.9259 43.168ZM38.9259 41.964C39.3086 41.964 39.6539 41.8707 39.9619 41.684C40.2792 41.4973 40.5312 41.222 40.7179 40.858C40.9139 40.4847 41.0119 40.0227 41.0119 39.472C41.0119 38.9213 40.9186 38.464 40.7319 38.1C40.5452 37.7267 40.2932 37.4467 39.9759 37.26C39.6679 37.0733 39.3272 36.98 38.9539 36.98C38.5806 36.98 38.2352 37.0733 37.9179 37.26C37.6006 37.4467 37.3439 37.7267 37.1479 38.1C36.9612 38.464 36.8679 38.9213 36.8679 39.472C36.8679 40.0227 36.9612 40.4847 37.1479 40.858C37.3439 41.222 37.5959 41.4973 37.9039 41.684C38.2212 41.8707 38.5619 41.964 38.9259 41.964ZM48.5248 43L45.2768 39.136L48.2168 35.944H49.9108L46.4108 39.682V38.632L50.2888 43H48.5248ZM44.0868 43V32.92H45.4868V43H44.0868ZM54.1284 43.168C53.4564 43.168 52.859 43.014 52.3364 42.706C51.8137 42.398 51.403 41.9687 51.1044 41.418C50.815 40.8673 50.6704 40.228 50.6704 39.5C50.6704 38.7533 50.815 38.1047 51.1044 37.554C51.403 36.994 51.8137 36.56 52.3364 36.252C52.859 35.9347 53.4657 35.776 54.1564 35.776C54.847 35.776 55.4397 35.93 55.9344 36.238C56.429 36.546 56.8117 36.9567 57.0824 37.47C57.353 37.974 57.4884 38.534 57.4884 39.15C57.4884 39.2433 57.4837 39.346 57.4744 39.458C57.4744 39.5607 57.4697 39.6773 57.4604 39.808H51.6924V38.814H56.0884C56.0604 38.226 55.8644 37.7687 55.5004 37.442C55.1364 37.106 54.6837 36.938 54.1424 36.938C53.7597 36.938 53.4097 37.0267 53.0924 37.204C52.775 37.372 52.5184 37.624 52.3224 37.96C52.1357 38.2867 52.0424 38.702 52.0424 39.206V39.598C52.0424 40.1207 52.1357 40.564 52.3224 40.928C52.5184 41.2827 52.775 41.5533 53.0924 41.74C53.4097 41.9173 53.755 42.006 54.1284 42.006C54.5764 42.006 54.945 41.908 55.2344 41.712C55.5237 41.516 55.7384 41.25 55.8784 40.914H57.2784C57.157 41.3433 56.9517 41.7307 56.6624 42.076C56.373 42.412 56.0137 42.678 55.5844 42.874C55.1644 43.07 54.679 43.168 54.1284 43.168ZM59.0438 43V35.944H60.3038L60.3878 37.148C60.6118 36.728 60.9291 36.3967 61.3398 36.154C61.7505 35.902 62.2218 35.776 62.7538 35.776C63.3138 35.776 63.7945 35.888 64.1958 36.112C64.5971 36.336 64.9098 36.6767 65.1338 37.134C65.3578 37.582 65.4698 38.1467 65.4698 38.828V43H64.0698V38.968C64.0698 38.3147 63.9251 37.82 63.6358 37.484C63.3465 37.148 62.9265 36.98 62.3758 36.98C62.0118 36.98 61.6851 37.0687 61.3958 37.246C61.1065 37.414 60.8731 37.666 60.6958 38.002C60.5278 38.338 60.4438 38.7487 60.4438 39.234V43H59.0438ZM70.8426 43V35.944H72.1026L72.1866 37.148C72.4106 36.728 72.728 36.3967 73.1386 36.154C73.5493 35.902 74.0206 35.776 74.5526 35.776C75.1126 35.776 75.5933 35.888 75.9946 36.112C76.396 36.336 76.7086 36.6767 76.9326 37.134C77.1566 37.582 77.2686 38.1467 77.2686 38.828V43H75.8686V38.968C75.8686 38.3147 75.724 37.82 75.4346 37.484C75.1453 37.148 74.7253 36.98 74.1746 36.98C73.8106 36.98 73.484 37.0687 73.1946 37.246C72.9053 37.414 72.672 37.666 72.4946 38.002C72.3266 38.338 72.2426 38.7487 72.2426 39.234V43H70.8426ZM81.3974 43.168C80.8188 43.168 80.3381 43.07 79.9554 42.874C79.5728 42.678 79.2881 42.4167 79.1014 42.09C78.9148 41.754 78.8214 41.3947 78.8214 41.012C78.8214 40.5453 78.9428 40.1487 79.1854 39.822C79.4281 39.486 79.7734 39.2293 80.2214 39.052C80.6694 38.8747 81.2061 38.786 81.8314 38.786H83.6654C83.6654 38.3753 83.6048 38.0347 83.4834 37.764C83.3621 37.4933 83.1801 37.2927 82.9374 37.162C82.7041 37.022 82.4054 36.952 82.0414 36.952C81.6214 36.952 81.2621 37.0547 80.9634 37.26C80.6648 37.456 80.4781 37.75 80.4034 38.142H79.0034C79.0594 37.6473 79.2274 37.2273 79.5074 36.882C79.7968 36.5273 80.1654 36.2567 80.6134 36.07C81.0614 35.874 81.5374 35.776 82.0414 35.776C82.7041 35.776 83.2594 35.8927 83.7074 36.126C84.1554 36.3593 84.4914 36.6907 84.7154 37.12C84.9488 37.54 85.0654 38.044 85.0654 38.632V43H83.8474L83.7354 41.81C83.6328 41.9967 83.5114 42.174 83.3714 42.342C83.2314 42.51 83.0634 42.6547 82.8674 42.776C82.6808 42.8973 82.4614 42.9907 82.2094 43.056C81.9668 43.1307 81.6961 43.168 81.3974 43.168ZM81.6634 42.034C81.9621 42.034 82.2328 41.9733 82.4754 41.852C82.7181 41.7307 82.9234 41.5673 83.0914 41.362C83.2688 41.1473 83.3994 40.9093 83.4834 40.648C83.5768 40.3773 83.6281 40.102 83.6374 39.822V39.78H81.9714C81.5701 39.78 81.2434 39.8313 80.9914 39.934C80.7488 40.0273 80.5714 40.158 80.4594 40.326C80.3474 40.494 80.2914 40.69 80.2914 40.914C80.2914 41.1473 80.3428 41.348 80.4454 41.516C80.5574 41.6747 80.7161 41.8007 80.9214 41.894C81.1268 41.9873 81.3741 42.034 81.6634 42.034ZM86.8524 43V35.944H88.1124L88.2104 36.938C88.4344 36.574 88.7331 36.2893 89.1064 36.084C89.4797 35.8787 89.8997 35.776 90.3664 35.776C90.7211 35.776 91.0431 35.8273 91.3324 35.93C91.6217 36.0233 91.8784 36.168 92.1024 36.364C92.3264 36.56 92.5084 36.8027 92.6484 37.092C92.9004 36.6813 93.2364 36.3593 93.6564 36.126C94.0857 35.8927 94.5384 35.776 95.0144 35.776C95.5837 35.776 96.0737 35.8927 96.4844 36.126C96.8951 36.35 97.2077 36.6907 97.4224 37.148C97.6371 37.596 97.7444 38.156 97.7444 38.828V43H96.3584V38.968C96.3584 38.3147 96.2231 37.82 95.9524 37.484C95.6911 37.148 95.3037 36.98 94.7904 36.98C94.4451 36.98 94.1371 37.0687 93.8664 37.246C93.5957 37.4233 93.3811 37.68 93.2224 38.016C93.0731 38.352 92.9984 38.7627 92.9984 39.248V43H91.5984V38.968C91.5984 38.3147 91.4631 37.82 91.1924 37.484C90.9311 37.148 90.5437 36.98 90.0304 36.98C89.7037 36.98 89.4051 37.0687 89.1344 37.246C88.8637 37.4233 88.6491 37.68 88.4904 38.016C88.3317 38.352 88.2524 38.7627 88.2524 39.248V43H86.8524ZM102.746 43.168C102.074 43.168 101.476 43.014 100.954 42.706C100.431 42.398 100.02 41.9687 99.7216 41.418C99.4322 40.8673 99.2876 40.228 99.2876 39.5C99.2876 38.7533 99.4322 38.1047 99.7216 37.554C100.02 36.994 100.431 36.56 100.954 36.252C101.476 35.9347 102.083 35.776 102.774 35.776C103.464 35.776 104.057 35.93 104.552 36.238C105.046 36.546 105.429 36.9567 105.7 37.47C105.97 37.974 106.106 38.534 106.106 39.15C106.106 39.2433 106.101 39.346 106.092 39.458C106.092 39.5607 106.087 39.6773 106.078 39.808H100.31V38.814H104.706C104.678 38.226 104.482 37.7687 104.118 37.442C103.754 37.106 103.301 36.938 102.76 36.938C102.377 36.938 102.027 37.0267 101.71 37.204C101.392 37.372 101.136 37.624 100.94 37.96C100.753 38.2867 100.66 38.702 100.66 39.206V39.598C100.66 40.1207 100.753 40.564 100.94 40.928C101.136 41.2827 101.392 41.5533 101.71 41.74C102.027 41.9173 102.372 42.006 102.746 42.006C103.194 42.006 103.562 41.908 103.852 41.712C104.141 41.516 104.356 41.25 104.496 40.914H105.896C105.774 41.3433 105.569 41.7307 105.28 42.076C104.99 42.412 104.631 42.678 104.202 42.874C103.782 43.07 103.296 43.168 102.746 43.168Z" fill="white"/>
<rect x="16.5" y="68.5" width="317" height="43" rx="7.5" stroke="white" stroke-opacity="0.15"/>
<path d="M31.304 95V86.348H28.406V85.2H35.616V86.348H32.704V95H31.304ZM38.9259 95.168C38.2632 95.168 37.6659 95.014 37.1339 94.706C36.6112 94.398 36.1959 93.9687 35.8879 93.418C35.5892 92.858 35.4399 92.214 35.4399 91.486C35.4399 90.7393 35.5939 90.0907 35.9019 89.54C36.2099 88.98 36.6299 88.546 37.1619 88.238C37.6939 87.93 38.2912 87.776 38.9539 87.776C39.6259 87.776 40.2232 87.93 40.7459 88.238C41.2686 88.546 41.6792 88.9753 41.9779 89.526C42.2859 90.0767 42.4399 90.7253 42.4399 91.472C42.4399 92.2187 42.2859 92.8673 41.9779 93.418C41.6792 93.9687 41.2639 94.398 40.7319 94.706C40.1999 95.014 39.5979 95.168 38.9259 95.168ZM38.9259 93.964C39.3086 93.964 39.6539 93.8707 39.9619 93.684C40.2792 93.4973 40.5312 93.222 40.7179 92.858C40.9139 92.4847 41.0119 92.0227 41.0119 91.472C41.0119 90.9213 40.9186 90.464 40.7319 90.1C40.5452 89.7267 40.2932 89.4467 39.9759 89.26C39.6679 89.0733 39.3272 88.98 38.9539 88.98C38.5806 88.98 38.2352 89.0733 37.9179 89.26C37.6006 89.4467 37.3439 89.7267 37.1479 90.1C36.9612 90.464 36.8679 90.9213 36.8679 91.472C36.8679 92.0227 36.9612 92.4847 37.1479 92.858C37.3439 93.222 37.5959 93.4973 37.9039 93.684C38.2212 93.8707 38.5619 93.964 38.9259 93.964ZM48.5248 95L45.2768 91.136L48.2168 87.944H49.9108L46.4108 91.682V90.632L50.2888 95H48.5248ZM44.0868 95V84.92H45.4868V95H44.0868ZM54.1284 95.168C53.4564 95.168 52.859 95.014 52.3364 94.706C51.8137 94.398 51.403 93.9687 51.1044 93.418C50.815 92.8673 50.6704 92.228 50.6704 91.5C50.6704 90.7533 50.815 90.1047 51.1044 89.554C51.403 88.994 51.8137 88.56 52.3364 88.252C52.859 87.9347 53.4657 87.776 54.1564 87.776C54.847 87.776 55.4397 87.93 55.9344 88.238C56.429 88.546 56.8117 88.9567 57.0824 89.47C57.353 89.974 57.4884 90.534 57.4884 91.15C57.4884 91.2433 57.4837 91.346 57.4744 91.458C57.4744 91.5607 57.4697 91.6773 57.4604 91.808H51.6924V90.814H56.0884C56.0604 90.226 55.8644 89.7687 55.5004 89.442C55.1364 89.106 54.6837 88.938 54.1424 88.938C53.7597 88.938 53.4097 89.0267 53.0924 89.204C52.775 89.372 52.5184 89.624 52.3224 89.96C52.1357 90.2867 52.0424 90.702 52.0424 91.206V91.598C52.0424 92.1207 52.1357 92.564 52.3224 92.928C52.5184 93.2827 52.775 93.5533 53.0924 93.74C53.4097 93.9173 53.755 94.006 54.1284 94.006C54.5764 94.006 54.945 93.908 55.2344 93.712C55.5237 93.516 55.7384 93.25 55.8784 92.914H57.2784C57.157 93.3433 56.9517 93.7307 56.6624 94.076C56.373 94.412 56.0137 94.678 55.5844 94.874C55.1644 95.07 54.679 95.168 54.1284 95.168ZM59.0438 95V87.944H60.3038L60.3878 89.148C60.6118 88.728 60.9291 88.3967 61.3398 88.154C61.7505 87.902 62.2218 87.776 62.7538 87.776C63.3138 87.776 63.7945 87.888 64.1958 88.112C64.5971 88.336 64.9098 88.6767 65.1338 89.134C65.3578 89.582 65.4698 90.1467 65.4698 90.828V95H64.0698V90.968C64.0698 90.3147 63.9251 89.82 63.6358 89.484C63.3465 89.148 62.9265 88.98 62.3758 88.98C62.0118 88.98 61.6851 89.0687 61.3958 89.246C61.1065 89.414 60.8731 89.666 60.6958 90.002C60.5278 90.338 60.4438 90.7487 60.4438 91.234V95H59.0438ZM74.1186 95.168C73.4 95.168 72.77 95.042 72.2286 94.79C71.6873 94.5287 71.2673 94.1647 70.9686 93.698C70.67 93.2313 70.5206 92.6853 70.5206 92.06H71.9906C72 92.4147 72.084 92.7413 72.2426 93.04C72.4106 93.3293 72.6486 93.5627 72.9566 93.74C73.274 93.908 73.6613 93.992 74.1186 93.992C74.5106 93.992 74.8466 93.9267 75.1266 93.796C75.416 93.6653 75.6353 93.488 75.7846 93.264C75.934 93.0307 76.0086 92.7647 76.0086 92.466C76.0086 92.1207 75.9293 91.836 75.7706 91.612C75.612 91.388 75.3973 91.206 75.1266 91.066C74.8653 90.9167 74.5573 90.786 74.2026 90.674C73.8573 90.562 73.4933 90.4407 73.1106 90.31C72.336 90.058 71.7573 89.7313 71.3746 89.33C71.0013 88.9287 70.8146 88.406 70.8146 87.762C70.8146 87.2113 70.9453 86.7353 71.2066 86.334C71.468 85.9233 71.832 85.606 72.2986 85.382C72.7746 85.1487 73.3346 85.032 73.9786 85.032C74.6133 85.032 75.1686 85.1487 75.6446 85.382C76.1206 85.6153 76.494 85.9373 76.7646 86.348C77.0353 86.7587 77.1706 87.2393 77.1706 87.79H75.6866C75.6866 87.538 75.6213 87.2907 75.4906 87.048C75.36 86.8053 75.164 86.6093 74.9026 86.46C74.6413 86.3013 74.3193 86.222 73.9366 86.222C73.6193 86.2127 73.3346 86.264 73.0826 86.376C72.8306 86.488 72.6346 86.6513 72.4946 86.866C72.3546 87.0807 72.2846 87.3373 72.2846 87.636C72.2846 87.9347 72.3453 88.1773 72.4666 88.364C72.5973 88.5413 72.784 88.6953 73.0266 88.826C73.2693 88.9567 73.5493 89.078 73.8666 89.19C74.1933 89.2927 74.5526 89.4093 74.9446 89.54C75.43 89.6987 75.8593 89.8947 76.2326 90.128C76.6153 90.352 76.914 90.646 77.1286 91.01C77.3526 91.3647 77.4646 91.822 77.4646 92.382C77.4646 92.8673 77.3386 93.32 77.0866 93.74C76.8346 94.16 76.4613 94.5053 75.9666 94.776C75.472 95.0373 74.856 95.168 74.1186 95.168ZM79.8714 98.08L81.5934 94.216H81.1874L78.4014 87.944H79.9134L82.1254 93.068L84.3514 87.944H85.8214L81.3414 98.08H79.8714ZM87.0575 95V87.944H88.3175L88.4155 88.938C88.6395 88.574 88.9381 88.2893 89.3115 88.084C89.6848 87.8787 90.1048 87.776 90.5715 87.776C90.9261 87.776 91.2481 87.8273 91.5375 87.93C91.8268 88.0233 92.0835 88.168 92.3075 88.364C92.5315 88.56 92.7135 88.8027 92.8535 89.092C93.1055 88.6813 93.4415 88.3593 93.8615 88.126C94.2908 87.8927 94.7435 87.776 95.2195 87.776C95.7888 87.776 96.2788 87.8927 96.6895 88.126C97.1001 88.35 97.4128 88.6907 97.6275 89.148C97.8421 89.596 97.9495 90.156 97.9495 90.828V95H96.5635V90.968C96.5635 90.3147 96.4281 89.82 96.1575 89.484C95.8961 89.148 95.5088 88.98 94.9955 88.98C94.6501 88.98 94.3421 89.0687 94.0715 89.246C93.8008 89.4233 93.5861 89.68 93.4275 90.016C93.2781 90.352 93.2035 90.7627 93.2035 91.248V95H91.8035V90.968C91.8035 90.3147 91.6681 89.82 91.3975 89.484C91.1361 89.148 90.7488 88.98 90.2355 88.98C89.9088 88.98 89.6101 89.0687 89.3395 89.246C89.0688 89.4233 88.8541 89.68 88.6955 90.016C88.5368 90.352 88.4575 90.7627 88.4575 91.248V95H87.0575ZM103.609 95.168C103.226 95.168 102.876 95.112 102.559 95C102.251 94.8973 101.98 94.7527 101.747 94.566C101.513 94.3793 101.317 94.1647 101.159 93.922L101.019 95H99.7586V84.92H101.159V89.05C101.383 88.6953 101.695 88.3967 102.097 88.154C102.507 87.902 103.011 87.776 103.609 87.776C104.281 87.776 104.873 87.9393 105.387 88.266C105.9 88.5833 106.297 89.022 106.577 89.582C106.866 90.1327 107.011 90.7673 107.011 91.486C107.011 92.186 106.866 92.816 106.577 93.376C106.297 93.936 105.9 94.3747 105.387 94.692C104.873 95.0093 104.281 95.168 103.609 95.168ZM103.385 93.95C103.814 93.95 104.192 93.8473 104.519 93.642C104.855 93.4367 105.116 93.1473 105.303 92.774C105.499 92.4007 105.597 91.9667 105.597 91.472C105.597 90.9773 105.499 90.548 105.303 90.184C105.116 89.8107 104.855 89.5213 104.519 89.316C104.192 89.1013 103.814 88.994 103.385 88.994C102.946 88.994 102.559 89.1013 102.223 89.316C101.896 89.5213 101.639 89.8107 101.453 90.184C101.266 90.548 101.173 90.9773 101.173 91.472C101.173 91.9667 101.266 92.4007 101.453 92.774C101.639 93.1473 101.896 93.4367 102.223 93.642C102.559 93.8473 102.946 93.95 103.385 93.95ZM111.865 95.168C111.203 95.168 110.605 95.014 110.073 94.706C109.551 94.398 109.135 93.9687 108.827 93.418C108.529 92.858 108.379 92.214 108.379 91.486C108.379 90.7393 108.533 90.0907 108.841 89.54C109.149 88.98 109.569 88.546 110.101 88.238C110.633 87.93 111.231 87.776 111.893 87.776C112.565 87.776 113.163 87.93 113.685 88.238C114.208 88.546 114.619 88.9753 114.917 89.526C115.225 90.0767 115.379 90.7253 115.379 91.472C115.379 92.2187 115.225 92.8673 114.917 93.418C114.619 93.9687 114.203 94.398 113.671 94.706C113.139 95.014 112.537 95.168 111.865 95.168ZM111.865 93.964C112.248 93.964 112.593 93.8707 112.901 93.684C113.219 93.4973 113.471 93.222 113.657 92.858C113.853 92.4847 113.951 92.0227 113.951 91.472C113.951 90.9213 113.858 90.464 113.671 90.1C113.485 89.7267 113.233 89.4467 112.915 89.26C112.607 89.0733 112.267 88.98 111.893 88.98C111.52 88.98 111.175 89.0733 110.857 89.26C110.54 89.4467 110.283 89.7267 110.087 90.1C109.901 90.464 109.807 90.9213 109.807 91.472C109.807 92.0227 109.901 92.4847 110.087 92.858C110.283 93.222 110.535 93.4973 110.843 93.684C111.161 93.8707 111.501 93.964 111.865 93.964ZM117.026 95V84.92H118.426V95H117.026Z" fill="white"/>
<rect x="16.5" y="120.5" width="317" height="43" rx="7.5" stroke="white" stroke-opacity="0.15"/>
<path d="M34.886 147V138.348H31.988V137.2H39.198V138.348H36.286V147H34.886ZM42.5079 147.168C41.8453 147.168 41.2479 147.014 40.7159 146.706C40.1933 146.398 39.7779 145.969 39.4699 145.418C39.1713 144.858 39.0219 144.214 39.0219 143.486C39.0219 142.739 39.1759 142.091 39.4839 141.54C39.7919 140.98 40.2119 140.546 40.7439 140.238C41.2759 139.93 41.8733 139.776 42.5359 139.776C43.2079 139.776 43.8053 139.93 44.3279 140.238C44.8506 140.546 45.2613 140.975 45.5599 141.526C45.8679 142.077 46.0219 142.725 46.0219 143.472C46.0219 144.219 45.8679 144.867 45.5599 145.418C45.2613 145.969 44.8459 146.398 44.3139 146.706C43.7819 147.014 43.1799 147.168 42.5079 147.168ZM42.5079 145.964C42.8906 145.964 43.2359 145.871 43.5439 145.684C43.8613 145.497 44.1133 145.222 44.2999 144.858C44.4959 144.485 44.5939 144.023 44.5939 143.472C44.5939 142.921 44.5006 142.464 44.3139 142.1C44.1273 141.727 43.8753 141.447 43.5579 141.26C43.2499 141.073 42.9093 140.98 42.5359 140.98C42.1626 140.98 41.8173 141.073 41.4999 141.26C41.1826 141.447 40.9259 141.727 40.7299 142.1C40.5433 142.464 40.4499 142.921 40.4499 143.472C40.4499 144.023 40.5433 144.485 40.7299 144.858C40.9259 145.222 41.1779 145.497 41.4859 145.684C41.8033 145.871 42.1439 145.964 42.5079 145.964ZM50.3074 147C49.8594 147 49.472 146.93 49.1454 146.79C48.8187 146.65 48.5667 146.417 48.3894 146.09C48.212 145.763 48.1234 145.32 48.1234 144.76V141.134H46.9054V139.944H48.1234L48.2914 138.18H49.5234V139.944H51.5254V141.134H49.5234V144.774C49.5234 145.175 49.6074 145.451 49.7754 145.6C49.9434 145.74 50.2327 145.81 50.6434 145.81H51.4554V147H50.3074ZM55.4072 147.168C54.8285 147.168 54.3479 147.07 53.9652 146.874C53.5825 146.678 53.2979 146.417 53.1112 146.09C52.9245 145.754 52.8312 145.395 52.8312 145.012C52.8312 144.545 52.9525 144.149 53.1952 143.822C53.4379 143.486 53.7832 143.229 54.2312 143.052C54.6792 142.875 55.2159 142.786 55.8412 142.786H57.6752C57.6752 142.375 57.6145 142.035 57.4932 141.764C57.3719 141.493 57.1899 141.293 56.9472 141.162C56.7139 141.022 56.4152 140.952 56.0512 140.952C55.6312 140.952 55.2719 141.055 54.9732 141.26C54.6745 141.456 54.4879 141.75 54.4132 142.142H53.0132C53.0692 141.647 53.2372 141.227 53.5172 140.882C53.8065 140.527 54.1752 140.257 54.6232 140.07C55.0712 139.874 55.5472 139.776 56.0512 139.776C56.7139 139.776 57.2692 139.893 57.7172 140.126C58.1652 140.359 58.5012 140.691 58.7252 141.12C58.9585 141.54 59.0752 142.044 59.0752 142.632V147H57.8572L57.7452 145.81C57.6425 145.997 57.5212 146.174 57.3812 146.342C57.2412 146.51 57.0732 146.655 56.8772 146.776C56.6905 146.897 56.4712 146.991 56.2192 147.056C55.9765 147.131 55.7059 147.168 55.4072 147.168ZM55.6732 146.034C55.9719 146.034 56.2425 145.973 56.4852 145.852C56.7279 145.731 56.9332 145.567 57.1012 145.362C57.2785 145.147 57.4092 144.909 57.4932 144.648C57.5865 144.377 57.6379 144.102 57.6472 143.822V143.78H55.9812C55.5799 143.78 55.2532 143.831 55.0012 143.934C54.7585 144.027 54.5812 144.158 54.4692 144.326C54.3572 144.494 54.3012 144.69 54.3012 144.914C54.3012 145.147 54.3525 145.348 54.4552 145.516C54.5672 145.675 54.7259 145.801 54.9312 145.894C55.1365 145.987 55.3839 146.034 55.6732 146.034ZM60.8622 147V136.92H62.2622V147H60.8622ZM71.0425 147.168C70.3238 147.168 69.6938 147.042 69.1525 146.79C68.6111 146.529 68.1911 146.165 67.8925 145.698C67.5938 145.231 67.4445 144.685 67.4445 144.06H68.9145C68.9238 144.415 69.0078 144.741 69.1665 145.04C69.3345 145.329 69.5725 145.563 69.8805 145.74C70.1978 145.908 70.5851 145.992 71.0425 145.992C71.4345 145.992 71.7705 145.927 72.0505 145.796C72.3398 145.665 72.5591 145.488 72.7085 145.264C72.8578 145.031 72.9325 144.765 72.9325 144.466C72.9325 144.121 72.8531 143.836 72.6945 143.612C72.5358 143.388 72.3211 143.206 72.0505 143.066C71.7891 142.917 71.4811 142.786 71.1265 142.674C70.7811 142.562 70.4171 142.441 70.0345 142.31C69.2598 142.058 68.6811 141.731 68.2985 141.33C67.9251 140.929 67.7385 140.406 67.7385 139.762C67.7385 139.211 67.8691 138.735 68.1305 138.334C68.3918 137.923 68.7558 137.606 69.2225 137.382C69.6985 137.149 70.2585 137.032 70.9025 137.032C71.5371 137.032 72.0925 137.149 72.5685 137.382C73.0445 137.615 73.4178 137.937 73.6885 138.348C73.9591 138.759 74.0945 139.239 74.0945 139.79H72.6105C72.6105 139.538 72.5451 139.291 72.4145 139.048C72.2838 138.805 72.0878 138.609 71.8265 138.46C71.5651 138.301 71.2431 138.222 70.8605 138.222C70.5431 138.213 70.2585 138.264 70.0065 138.376C69.7545 138.488 69.5585 138.651 69.4185 138.866C69.2785 139.081 69.2085 139.337 69.2085 139.636C69.2085 139.935 69.2691 140.177 69.3905 140.364C69.5211 140.541 69.7078 140.695 69.9505 140.826C70.1931 140.957 70.4731 141.078 70.7905 141.19C71.1171 141.293 71.4765 141.409 71.8685 141.54C72.3538 141.699 72.7831 141.895 73.1565 142.128C73.5391 142.352 73.8378 142.646 74.0525 143.01C74.2765 143.365 74.3885 143.822 74.3885 144.382C74.3885 144.867 74.2625 145.32 74.0105 145.74C73.7585 146.16 73.3851 146.505 72.8905 146.776C72.3958 147.037 71.7798 147.168 71.0425 147.168ZM78.5733 147.168C78.0226 147.168 77.5419 147.056 77.1313 146.832C76.7299 146.608 76.4173 146.272 76.1933 145.824C75.9786 145.376 75.8713 144.811 75.8713 144.13V139.944H77.2713V143.976C77.2713 144.639 77.4159 145.138 77.7053 145.474C77.9946 145.81 78.4099 145.978 78.9513 145.978C79.3153 145.978 79.6419 145.889 79.9313 145.712C80.2299 145.535 80.4633 145.278 80.6313 144.942C80.7993 144.606 80.8833 144.195 80.8833 143.71V139.944H82.2833V147H81.0373L80.9393 145.796C80.7246 146.225 80.4119 146.561 80.0013 146.804C79.5906 147.047 79.1146 147.168 78.5733 147.168ZM84.2 150.08V139.944H85.46L85.6 141.036C85.7494 140.821 85.936 140.621 86.16 140.434C86.384 140.238 86.65 140.079 86.958 139.958C87.2754 139.837 87.644 139.776 88.064 139.776C88.736 139.776 89.324 139.939 89.828 140.266C90.3414 140.593 90.738 141.036 91.018 141.596C91.3074 142.147 91.452 142.777 91.452 143.486C91.452 144.195 91.3074 144.83 91.018 145.39C90.7287 145.941 90.3274 146.375 89.814 146.692C89.31 147.009 88.722 147.168 88.05 147.168C87.4994 147.168 87.014 147.061 86.594 146.846C86.174 146.622 85.8427 146.314 85.6 145.922V150.08H84.2ZM87.826 145.95C88.2554 145.95 88.6334 145.847 88.96 145.642C89.296 145.437 89.5574 145.147 89.744 144.774C89.94 144.401 90.038 143.967 90.038 143.472C90.038 142.977 89.94 142.548 89.744 142.184C89.5574 141.811 89.296 141.521 88.96 141.316C88.6334 141.101 88.2554 140.994 87.826 140.994C87.3874 140.994 87 141.101 86.664 141.316C86.3374 141.521 86.0807 141.811 85.894 142.184C85.7074 142.548 85.614 142.977 85.614 143.472C85.614 143.967 85.7074 144.401 85.894 144.774C86.0807 145.147 86.3374 145.437 86.664 145.642C87 145.847 87.3874 145.95 87.826 145.95ZM93.0868 150.08V139.944H94.3468L94.4868 141.036C94.6361 140.821 94.8228 140.621 95.0468 140.434C95.2708 140.238 95.5368 140.079 95.8448 139.958C96.1621 139.837 96.5308 139.776 96.9508 139.776C97.6228 139.776 98.2108 139.939 98.7148 140.266C99.2281 140.593 99.6248 141.036 99.9048 141.596C100.194 142.147 100.339 142.777 100.339 143.486C100.339 144.195 100.194 144.83 99.9048 145.39C99.6154 145.941 99.2141 146.375 98.7008 146.692C98.1968 147.009 97.6088 147.168 96.9368 147.168C96.3861 147.168 95.9008 147.061 95.4808 146.846C95.0608 146.622 94.7294 146.314 94.4868 145.922V150.08H93.0868ZM96.7128 145.95C97.1421 145.95 97.5201 145.847 97.8468 145.642C98.1828 145.437 98.4441 145.147 98.6308 144.774C98.8268 144.401 98.9248 143.967 98.9248 143.472C98.9248 142.977 98.8268 142.548 98.6308 142.184C98.4441 141.811 98.1828 141.521 97.8468 141.316C97.5201 141.101 97.1421 140.994 96.7128 140.994C96.2741 140.994 95.8868 141.101 95.5508 141.316C95.2241 141.521 94.9674 141.811 94.7808 142.184C94.5941 142.548 94.5008 142.977 94.5008 143.472C94.5008 143.967 94.5941 144.401 94.7808 144.774C94.9674 145.147 95.2241 145.437 95.5508 145.642C95.8868 145.847 96.2741 145.95 96.7128 145.95ZM101.973 147V136.92H103.373V147H101.973ZM106.108 150.08L107.83 146.216H107.424L104.638 139.944H106.15L108.362 145.068L110.588 139.944H112.058L107.578 150.08H106.108Z" fill="white"/>
<rect x="16" y="180" width="318" height="48" rx="24" fill="#0267FF"/>
<path d="M149.668 209V197.8H153.108C154.409 197.8 155.487 198.029 156.34 198.488C157.193 198.947 157.823 199.597 158.228 200.44C158.644 201.272 158.852 202.264 158.852 203.416C158.852 204.568 158.644 205.56 158.228 206.392C157.823 207.224 157.193 207.869 156.34 208.328C155.497 208.776 154.42 209 153.108 209H149.668ZM151.268 207.656H153.044C154.079 207.656 154.9 207.485 155.508 207.144C156.116 206.803 156.548 206.317 156.804 205.688C157.071 205.048 157.204 204.291 157.204 203.416C157.204 202.531 157.071 201.768 156.804 201.128C156.548 200.488 156.116 199.997 155.508 199.656C154.9 199.315 154.079 199.144 153.044 199.144H151.268V207.656ZM164.345 209.192C163.577 209.192 162.895 209.016 162.297 208.664C161.7 208.312 161.231 207.821 160.889 207.192C160.559 206.563 160.393 205.832 160.393 205C160.393 204.147 160.559 203.405 160.889 202.776C161.231 202.136 161.7 201.64 162.297 201.288C162.895 200.925 163.588 200.744 164.377 200.744C165.167 200.744 165.844 200.92 166.409 201.272C166.975 201.624 167.412 202.093 167.721 202.68C168.031 203.256 168.185 203.896 168.185 204.6C168.185 204.707 168.18 204.824 168.169 204.952C168.169 205.069 168.164 205.203 168.153 205.352H161.561V204.216H166.585C166.553 203.544 166.329 203.021 165.913 202.648C165.497 202.264 164.98 202.072 164.361 202.072C163.924 202.072 163.524 202.173 163.161 202.376C162.799 202.568 162.505 202.856 162.281 203.24C162.068 203.613 161.961 204.088 161.961 204.664V205.112C161.961 205.709 162.068 206.216 162.281 206.632C162.505 207.037 162.799 207.347 163.161 207.56C163.524 207.763 163.919 207.864 164.345 207.864C164.857 207.864 165.279 207.752 165.609 207.528C165.94 207.304 166.185 207 166.345 206.616H167.945C167.807 207.107 167.572 207.549 167.241 207.944C166.911 208.328 166.5 208.632 166.009 208.856C165.529 209.08 164.975 209.192 164.345 209.192ZM169.963 212.52V200.936H171.403L171.563 202.184C171.734 201.939 171.947 201.709 172.203 201.496C172.459 201.272 172.763 201.091 173.115 200.952C173.478 200.813 173.899 200.744 174.379 200.744C175.147 200.744 175.819 200.931 176.395 201.304C176.982 201.677 177.435 202.184 177.755 202.824C178.086 203.453 178.251 204.173 178.251 204.984C178.251 205.795 178.086 206.52 177.755 207.16C177.424 207.789 176.966 208.285 176.379 208.648C175.803 209.011 175.131 209.192 174.363 209.192C173.734 209.192 173.179 209.069 172.699 208.824C172.219 208.568 171.84 208.216 171.563 207.768V212.52H169.963ZM174.107 207.8C174.598 207.8 175.03 207.683 175.403 207.448C175.787 207.213 176.086 206.883 176.299 206.456C176.523 206.029 176.635 205.533 176.635 204.968C176.635 204.403 176.523 203.912 176.299 203.496C176.086 203.069 175.787 202.739 175.403 202.504C175.03 202.259 174.598 202.136 174.107 202.136C173.606 202.136 173.163 202.259 172.779 202.504C172.406 202.739 172.112 203.069 171.899 203.496C171.686 203.912 171.579 204.403 171.579 204.968C171.579 205.533 171.686 206.029 171.899 206.456C172.112 206.883 172.406 207.213 172.779 207.448C173.163 207.683 173.606 207.8 174.107 207.8ZM180.119 209V197.48H181.719V209H180.119ZM187.596 209.192C186.839 209.192 186.156 209.016 185.548 208.664C184.951 208.312 184.476 207.821 184.124 207.192C183.783 206.552 183.612 205.816 183.612 204.984C183.612 204.131 183.788 203.389 184.14 202.76C184.492 202.12 184.972 201.624 185.58 201.272C186.188 200.92 186.871 200.744 187.628 200.744C188.396 200.744 189.079 200.92 189.676 201.272C190.273 201.624 190.743 202.115 191.084 202.744C191.436 203.373 191.612 204.115 191.612 204.968C191.612 205.821 191.436 206.563 191.084 207.192C190.743 207.821 190.268 208.312 189.66 208.664C189.052 209.016 188.364 209.192 187.596 209.192ZM187.596 207.816C188.033 207.816 188.428 207.709 188.78 207.496C189.143 207.283 189.431 206.968 189.644 206.552C189.868 206.125 189.98 205.597 189.98 204.968C189.98 204.339 189.873 203.816 189.66 203.4C189.447 202.973 189.159 202.653 188.796 202.44C188.444 202.227 188.055 202.12 187.628 202.12C187.201 202.12 186.807 202.227 186.444 202.44C186.081 202.653 185.788 202.973 185.564 203.4C185.351 203.816 185.244 204.339 185.244 204.968C185.244 205.597 185.351 206.125 185.564 206.552C185.788 206.968 186.076 207.283 186.428 207.496C186.791 207.709 187.18 207.816 187.596 207.816ZM193.75 212.52L195.718 208.104H195.254L192.07 200.936H193.798L196.326 206.792L198.87 200.936H200.55L195.43 212.52H193.75Z" fill="white"/>
</svg>
