<svg width="350" height="232" viewBox="0 0 350 232" fill="none" xmlns="http://www.w3.org/2000/svg">
<rect x="0.5" y="0.5" width="349" height="231" rx="15.5" fill="#02071D"/>
<rect x="0.5" y="0.5" width="349" height="231" rx="15.5" stroke="#454956"/>
<rect x="16.5" y="16.5" width="317" height="43" rx="7.5" stroke="white" stroke-opacity="0.15"/>
<path d="M97.252 43V33.2H98.652V43H97.252ZM91.022 43V33.2H92.422V43H91.022ZM92.184 38.576V37.428H97.56V38.576H92.184ZM100.73 43V35.944H102.13V43H100.73ZM101.444 34.614C101.173 34.614 100.949 34.53 100.772 34.362C100.604 34.194 100.52 33.9793 100.52 33.718C100.52 33.466 100.604 33.2607 100.772 33.102C100.949 32.934 101.173 32.85 101.444 32.85C101.705 32.85 101.924 32.934 102.102 33.102C102.279 33.2607 102.368 33.466 102.368 33.718C102.368 33.9793 102.279 34.194 102.102 34.362C101.924 34.53 101.705 34.614 101.444 34.614ZM106.862 43.168C106.264 43.168 105.742 43.07 105.294 42.874C104.846 42.678 104.491 42.4027 104.23 42.048C103.968 41.6933 103.81 41.278 103.754 40.802H105.182C105.228 41.026 105.317 41.2313 105.448 41.418C105.588 41.6047 105.774 41.754 106.008 41.866C106.25 41.978 106.535 42.034 106.862 42.034C107.17 42.034 107.422 41.992 107.618 41.908C107.823 41.8147 107.972 41.6933 108.066 41.544C108.159 41.3853 108.206 41.2173 108.206 41.04C108.206 40.7787 108.14 40.5827 108.01 40.452C107.888 40.312 107.702 40.2047 107.45 40.13C107.207 40.046 106.913 39.9713 106.568 39.906C106.241 39.85 105.924 39.7753 105.616 39.682C105.317 39.5793 105.046 39.4533 104.804 39.304C104.57 39.1547 104.384 38.968 104.244 38.744C104.104 38.5107 104.034 38.226 104.034 37.89C104.034 37.4887 104.141 37.1293 104.356 36.812C104.57 36.4853 104.874 36.2333 105.266 36.056C105.667 35.8693 106.138 35.776 106.68 35.776C107.464 35.776 108.094 35.9627 108.57 36.336C109.046 36.7093 109.326 37.2367 109.41 37.918H108.052C108.014 37.6007 107.874 37.358 107.632 37.19C107.389 37.0127 107.067 36.924 106.666 36.924C106.264 36.924 105.956 37.0033 105.742 37.162C105.527 37.3207 105.42 37.5307 105.42 37.792C105.42 37.96 105.48 38.1093 105.602 38.24C105.723 38.3707 105.9 38.4827 106.134 38.576C106.376 38.66 106.67 38.7393 107.016 38.814C107.51 38.9073 107.954 39.024 108.346 39.164C108.738 39.304 109.05 39.5093 109.284 39.78C109.517 40.0507 109.634 40.438 109.634 40.942C109.643 41.3807 109.531 41.768 109.298 42.104C109.074 42.44 108.752 42.7013 108.332 42.888C107.921 43.0747 107.431 43.168 106.862 43.168ZM113.907 43C113.459 43 113.072 42.93 112.745 42.79C112.418 42.65 112.166 42.4167 111.989 42.09C111.812 41.7633 111.723 41.32 111.723 40.76V37.134H110.505V35.944H111.723L111.891 34.18H113.123V35.944H115.125V37.134H113.123V40.774C113.123 41.1753 113.207 41.4507 113.375 41.6C113.543 41.74 113.832 41.81 114.243 41.81H115.055V43H113.907ZM119.697 43.168C119.035 43.168 118.437 43.014 117.905 42.706C117.383 42.398 116.967 41.9687 116.659 41.418C116.361 40.858 116.211 40.214 116.211 39.486C116.211 38.7393 116.365 38.0907 116.673 37.54C116.981 36.98 117.401 36.546 117.933 36.238C118.465 35.93 119.063 35.776 119.725 35.776C120.397 35.776 120.995 35.93 121.517 36.238C122.04 36.546 122.451 36.9753 122.749 37.526C123.057 38.0767 123.211 38.7253 123.211 39.472C123.211 40.2187 123.057 40.8673 122.749 41.418C122.451 41.9687 122.035 42.398 121.503 42.706C120.971 43.014 120.369 43.168 119.697 43.168ZM119.697 41.964C120.08 41.964 120.425 41.8707 120.733 41.684C121.051 41.4973 121.303 41.222 121.489 40.858C121.685 40.4847 121.783 40.0227 121.783 39.472C121.783 38.9213 121.69 38.464 121.503 38.1C121.317 37.7267 121.065 37.4467 120.747 37.26C120.439 37.0733 120.099 36.98 119.725 36.98C119.352 36.98 119.007 37.0733 118.689 37.26C118.372 37.4467 118.115 37.7267 117.919 38.1C117.733 38.464 117.639 38.9213 117.639 39.472C117.639 40.0227 117.733 40.4847 117.919 40.858C118.115 41.222 118.367 41.4973 118.675 41.684C118.993 41.8707 119.333 41.964 119.697 41.964ZM124.858 43V35.944H126.118L126.244 37.274C126.403 36.9567 126.608 36.6907 126.86 36.476C127.112 36.252 127.406 36.0793 127.742 35.958C128.088 35.8367 128.48 35.776 128.918 35.776V37.26H128.414C128.125 37.26 127.85 37.2973 127.588 37.372C127.327 37.4373 127.094 37.554 126.888 37.722C126.692 37.89 126.538 38.1187 126.426 38.408C126.314 38.6973 126.258 39.0567 126.258 39.486V43H124.858ZM131.016 46.08L132.738 42.216H132.332L129.546 35.944H131.058L133.27 41.068L135.496 35.944H136.966L132.486 46.08H131.016ZM145.004 43.168C144.341 43.168 143.744 43.014 143.212 42.706C142.689 42.398 142.274 41.9687 141.966 41.418C141.667 40.858 141.518 40.214 141.518 39.486C141.518 38.7393 141.672 38.0907 141.98 37.54C142.288 36.98 142.708 36.546 143.24 36.238C143.772 35.93 144.369 35.776 145.032 35.776C145.704 35.776 146.301 35.93 146.824 36.238C147.347 36.546 147.757 36.9753 148.056 37.526C148.364 38.0767 148.518 38.7253 148.518 39.472C148.518 40.2187 148.364 40.8673 148.056 41.418C147.757 41.9687 147.342 42.398 146.81 42.706C146.278 43.014 145.676 43.168 145.004 43.168ZM145.004 41.964C145.387 41.964 145.732 41.8707 146.04 41.684C146.357 41.4973 146.609 41.222 146.796 40.858C146.992 40.4847 147.09 40.0227 147.09 39.472C147.09 38.9213 146.997 38.464 146.81 38.1C146.623 37.7267 146.371 37.4467 146.054 37.26C145.746 37.0733 145.405 36.98 145.032 36.98C144.659 36.98 144.313 37.0733 143.996 37.26C143.679 37.4467 143.422 37.7267 143.226 38.1C143.039 38.464 142.946 38.9213 142.946 39.472C142.946 40.0227 143.039 40.4847 143.226 40.858C143.422 41.222 143.674 41.4973 143.982 41.684C144.299 41.8707 144.64 41.964 145.004 41.964ZM150.543 43V34.992C150.543 34.5067 150.622 34.11 150.781 33.802C150.949 33.494 151.192 33.27 151.509 33.13C151.826 32.99 152.209 32.92 152.657 32.92H153.483V34.11H152.881C152.545 34.11 152.302 34.18 152.153 34.32C152.013 34.4507 151.943 34.684 151.943 35.02V43H150.543ZM149.507 37.134V35.944H153.637V37.134H149.507ZM161.777 43.168C161.105 43.168 160.513 43.0093 159.999 42.692C159.486 42.3653 159.085 41.9267 158.795 41.376C158.515 40.816 158.375 40.1813 158.375 39.472C158.375 38.7533 158.515 38.1187 158.795 37.568C159.085 37.0173 159.486 36.5833 159.999 36.266C160.522 35.9393 161.119 35.776 161.791 35.776C162.342 35.776 162.827 35.888 163.247 36.112C163.667 36.3267 163.994 36.6347 164.227 37.036V32.92H165.627V43H164.367L164.227 41.908C164.087 42.1227 163.905 42.328 163.681 42.524C163.457 42.7107 163.187 42.8647 162.869 42.986C162.552 43.1073 162.188 43.168 161.777 43.168ZM162.001 41.95C162.44 41.95 162.827 41.8473 163.163 41.642C163.499 41.4367 163.756 41.1473 163.933 40.774C164.12 40.4007 164.213 39.9667 164.213 39.472C164.213 38.9773 164.12 38.548 163.933 38.184C163.756 37.8107 163.499 37.5213 163.163 37.316C162.827 37.1013 162.44 36.994 162.001 36.994C161.581 36.994 161.203 37.1013 160.867 37.316C160.531 37.5213 160.27 37.8107 160.083 38.184C159.897 38.548 159.803 38.9773 159.803 39.472C159.803 39.9667 159.897 40.4007 160.083 40.774C160.27 41.1473 160.531 41.4367 160.867 41.642C161.203 41.8473 161.581 41.95 162.001 41.95ZM170.734 43.168C170.062 43.168 169.465 43.014 168.942 42.706C168.419 42.398 168.009 41.9687 167.71 41.418C167.421 40.8673 167.276 40.228 167.276 39.5C167.276 38.7533 167.421 38.1047 167.71 37.554C168.009 36.994 168.419 36.56 168.942 36.252C169.465 35.9347 170.071 35.776 170.762 35.776C171.453 35.776 172.045 35.93 172.54 36.238C173.035 36.546 173.417 36.9567 173.688 37.47C173.959 37.974 174.094 38.534 174.094 39.15C174.094 39.2433 174.089 39.346 174.08 39.458C174.08 39.5607 174.075 39.6773 174.066 39.808H168.298V38.814H172.694C172.666 38.226 172.47 37.7687 172.106 37.442C171.742 37.106 171.289 36.938 170.748 36.938C170.365 36.938 170.015 37.0267 169.698 37.204C169.381 37.372 169.124 37.624 168.928 37.96C168.741 38.2867 168.648 38.702 168.648 39.206V39.598C168.648 40.1207 168.741 40.564 168.928 40.928C169.124 41.2827 169.381 41.5533 169.698 41.74C170.015 41.9173 170.361 42.006 170.734 42.006C171.182 42.006 171.551 41.908 171.84 41.712C172.129 41.516 172.344 41.25 172.484 40.914H173.884C173.763 41.3433 173.557 41.7307 173.268 42.076C172.979 42.412 172.619 42.678 172.19 42.874C171.77 43.07 171.285 43.168 170.734 43.168ZM175.649 46.08V35.944H176.909L177.049 37.036C177.199 36.8213 177.385 36.6207 177.609 36.434C177.833 36.238 178.099 36.0793 178.407 35.958C178.725 35.8367 179.093 35.776 179.513 35.776C180.185 35.776 180.773 35.9393 181.277 36.266C181.791 36.5927 182.187 37.036 182.467 37.596C182.757 38.1467 182.901 38.7767 182.901 39.486C182.901 40.1953 182.757 40.83 182.467 41.39C182.178 41.9407 181.777 42.3747 181.263 42.692C180.759 43.0093 180.171 43.168 179.499 43.168C178.949 43.168 178.463 43.0607 178.043 42.846C177.623 42.622 177.292 42.314 177.049 41.922V46.08H175.649ZM179.275 41.95C179.705 41.95 180.083 41.8473 180.409 41.642C180.745 41.4367 181.007 41.1473 181.193 40.774C181.389 40.4007 181.487 39.9667 181.487 39.472C181.487 38.9773 181.389 38.548 181.193 38.184C181.007 37.8107 180.745 37.5213 180.409 37.316C180.083 37.1013 179.705 36.994 179.275 36.994C178.837 36.994 178.449 37.1013 178.113 37.316C177.787 37.5213 177.53 37.8107 177.343 38.184C177.157 38.548 177.063 38.9773 177.063 39.472C177.063 39.9667 177.157 40.4007 177.343 40.774C177.53 41.1473 177.787 41.4367 178.113 41.642C178.449 41.8473 178.837 41.95 179.275 41.95ZM184.536 43V32.92H185.936V43H184.536ZM191.078 43.168C190.416 43.168 189.818 43.014 189.286 42.706C188.764 42.398 188.348 41.9687 188.04 41.418C187.742 40.858 187.592 40.214 187.592 39.486C187.592 38.7393 187.746 38.0907 188.054 37.54C188.362 36.98 188.782 36.546 189.314 36.238C189.846 35.93 190.444 35.776 191.106 35.776C191.778 35.776 192.376 35.93 192.898 36.238C193.421 36.546 193.832 36.9753 194.13 37.526C194.438 38.0767 194.592 38.7253 194.592 39.472C194.592 40.2187 194.438 40.8673 194.13 41.418C193.832 41.9687 193.416 42.398 192.884 42.706C192.352 43.014 191.75 43.168 191.078 43.168ZM191.078 41.964C191.461 41.964 191.806 41.8707 192.114 41.684C192.432 41.4973 192.684 41.222 192.87 40.858C193.066 40.4847 193.164 40.0227 193.164 39.472C193.164 38.9213 193.071 38.464 192.884 38.1C192.698 37.7267 192.446 37.4467 192.128 37.26C191.82 37.0733 191.48 36.98 191.106 36.98C190.733 36.98 190.388 37.0733 190.07 37.26C189.753 37.4467 189.496 37.7267 189.3 38.1C189.114 38.464 189.02 38.9213 189.02 39.472C189.02 40.0227 189.114 40.4847 189.3 40.858C189.496 41.222 189.748 41.4973 190.056 41.684C190.374 41.8707 190.714 41.964 191.078 41.964ZM196.463 46.08L198.185 42.216H197.779L194.993 35.944H196.505L198.717 41.068L200.943 35.944H202.413L197.933 46.08H196.463ZM206.199 43.168C205.527 43.168 204.929 43.014 204.407 42.706C203.884 42.398 203.473 41.9687 203.175 41.418C202.885 40.8673 202.741 40.228 202.741 39.5C202.741 38.7533 202.885 38.1047 203.175 37.554C203.473 36.994 203.884 36.56 204.407 36.252C204.929 35.9347 205.536 35.776 206.227 35.776C206.917 35.776 207.51 35.93 208.005 36.238C208.499 36.546 208.882 36.9567 209.153 37.47C209.423 37.974 209.559 38.534 209.559 39.15C209.559 39.2433 209.554 39.346 209.545 39.458C209.545 39.5607 209.54 39.6773 209.531 39.808H203.763V38.814H208.159C208.131 38.226 207.935 37.7687 207.571 37.442C207.207 37.106 206.754 36.938 206.213 36.938C205.83 36.938 205.48 37.0267 205.163 37.204C204.845 37.372 204.589 37.624 204.393 37.96C204.206 38.2867 204.113 38.702 204.113 39.206V39.598C204.113 40.1207 204.206 40.564 204.393 40.928C204.589 41.2827 204.845 41.5533 205.163 41.74C205.48 41.9173 205.825 42.006 206.199 42.006C206.647 42.006 207.015 41.908 207.305 41.712C207.594 41.516 207.809 41.25 207.949 40.914H209.349C209.227 41.3433 209.022 41.7307 208.733 42.076C208.443 42.412 208.084 42.678 207.655 42.874C207.235 43.07 206.749 43.168 206.199 43.168ZM214.25 43.168C213.578 43.168 212.985 43.0093 212.472 42.692C211.959 42.3653 211.557 41.9267 211.268 41.376C210.988 40.816 210.848 40.1813 210.848 39.472C210.848 38.7533 210.988 38.1187 211.268 37.568C211.557 37.0173 211.959 36.5833 212.472 36.266C212.995 35.9393 213.592 35.776 214.264 35.776C214.815 35.776 215.3 35.888 215.72 36.112C216.14 36.3267 216.467 36.6347 216.7 37.036V32.92H218.1V43H216.84L216.7 41.908C216.56 42.1227 216.378 42.328 216.154 42.524C215.93 42.7107 215.659 42.8647 215.342 42.986C215.025 43.1073 214.661 43.168 214.25 43.168ZM214.474 41.95C214.913 41.95 215.3 41.8473 215.636 41.642C215.972 41.4367 216.229 41.1473 216.406 40.774C216.593 40.4007 216.686 39.9667 216.686 39.472C216.686 38.9773 216.593 38.548 216.406 38.184C216.229 37.8107 215.972 37.5213 215.636 37.316C215.3 37.1013 214.913 36.994 214.474 36.994C214.054 36.994 213.676 37.1013 213.34 37.316C213.004 37.5213 212.743 37.8107 212.556 38.184C212.369 38.548 212.276 38.9773 212.276 39.472C212.276 39.9667 212.369 40.4007 212.556 40.774C212.743 41.1473 213.004 41.4367 213.34 41.642C213.676 41.8473 214.054 41.95 214.474 41.95ZM226.509 43C226.061 43 225.673 42.93 225.347 42.79C225.02 42.65 224.768 42.4167 224.591 42.09C224.413 41.7633 224.325 41.32 224.325 40.76V37.134H223.107V35.944H224.325L224.493 34.18H225.725V35.944H227.727V37.134H225.725V40.774C225.725 41.1753 225.809 41.4507 225.977 41.6C226.145 41.74 226.434 41.81 226.845 41.81H227.657V43H226.509ZM232.299 43.168C231.636 43.168 231.039 43.014 230.507 42.706C229.984 42.398 229.569 41.9687 229.261 41.418C228.962 40.858 228.813 40.214 228.813 39.486C228.813 38.7393 228.967 38.0907 229.275 37.54C229.583 36.98 230.003 36.546 230.535 36.238C231.067 35.93 231.664 35.776 232.327 35.776C232.999 35.776 233.596 35.93 234.119 36.238C234.642 36.546 235.052 36.9753 235.351 37.526C235.659 38.0767 235.813 38.7253 235.813 39.472C235.813 40.2187 235.659 40.8673 235.351 41.418C235.052 41.9687 234.637 42.398 234.105 42.706C233.573 43.014 232.971 43.168 232.299 43.168ZM232.299 41.964C232.682 41.964 233.027 41.8707 233.335 41.684C233.652 41.4973 233.904 41.222 234.091 40.858C234.287 40.4847 234.385 40.0227 234.385 39.472C234.385 38.9213 234.292 38.464 234.105 38.1C233.918 37.7267 233.666 37.4467 233.349 37.26C233.041 37.0733 232.7 36.98 232.327 36.98C231.954 36.98 231.608 37.0733 231.291 37.26C230.974 37.4467 230.717 37.7267 230.521 38.1C230.334 38.464 230.241 38.9213 230.241 39.472C230.241 40.0227 230.334 40.4847 230.521 40.858C230.717 41.222 230.969 41.4973 231.277 41.684C231.594 41.8707 231.935 41.964 232.299 41.964ZM241.898 43L238.65 39.136L241.59 35.944H243.284L239.784 39.682V38.632L243.662 43H241.898ZM237.46 43V32.92H238.86V43H237.46ZM247.501 43.168C246.829 43.168 246.232 43.014 245.709 42.706C245.187 42.398 244.776 41.9687 244.477 41.418C244.188 40.8673 244.043 40.228 244.043 39.5C244.043 38.7533 244.188 38.1047 244.477 37.554C244.776 36.994 245.187 36.56 245.709 36.252C246.232 35.9347 246.839 35.776 247.529 35.776C248.22 35.776 248.813 35.93 249.307 36.238C249.802 36.546 250.185 36.9567 250.455 37.47C250.726 37.974 250.861 38.534 250.861 39.15C250.861 39.2433 250.857 39.346 250.847 39.458C250.847 39.5607 250.843 39.6773 250.833 39.808H245.065V38.814H249.461C249.433 38.226 249.237 37.7687 248.873 37.442C248.509 37.106 248.057 36.938 247.515 36.938C247.133 36.938 246.783 37.0267 246.465 37.204C246.148 37.372 245.891 37.624 245.695 37.96C245.509 38.2867 245.415 38.702 245.415 39.206V39.598C245.415 40.1207 245.509 40.564 245.695 40.928C245.891 41.2827 246.148 41.5533 246.465 41.74C246.783 41.9173 247.128 42.006 247.501 42.006C247.949 42.006 248.318 41.908 248.607 41.712C248.897 41.516 249.111 41.25 249.251 40.914H250.651C250.53 41.3433 250.325 41.7307 250.035 42.076C249.746 42.412 249.387 42.678 248.957 42.874C248.537 43.07 248.052 43.168 247.501 43.168ZM252.417 43V35.944H253.677L253.761 37.148C253.985 36.728 254.302 36.3967 254.713 36.154C255.124 35.902 255.595 35.776 256.127 35.776C256.687 35.776 257.168 35.888 257.569 36.112C257.97 36.336 258.283 36.6767 258.507 37.134C258.731 37.582 258.843 38.1467 258.843 38.828V43H257.443V38.968C257.443 38.3147 257.298 37.82 257.009 37.484C256.72 37.148 256.3 36.98 255.749 36.98C255.385 36.98 255.058 37.0687 254.769 37.246C254.48 37.414 254.246 37.666 254.069 38.002C253.901 38.338 253.817 38.7487 253.817 39.234V43H252.417Z" fill="white"/>
<rect x="16.5" y="68.5" width="317" height="43" rx="7.5" stroke="white" stroke-opacity="0.15"/>
<path d="M31.304 95V86.348H28.406V85.2H35.616V86.348H32.704V95H31.304ZM38.9259 95.168C38.2632 95.168 37.6659 95.014 37.1339 94.706C36.6112 94.398 36.1959 93.9687 35.8879 93.418C35.5892 92.858 35.4399 92.214 35.4399 91.486C35.4399 90.7393 35.5939 90.0907 35.9019 89.54C36.2099 88.98 36.6299 88.546 37.1619 88.238C37.6939 87.93 38.2912 87.776 38.9539 87.776C39.6259 87.776 40.2232 87.93 40.7459 88.238C41.2686 88.546 41.6792 88.9753 41.9779 89.526C42.2859 90.0767 42.4399 90.7253 42.4399 91.472C42.4399 92.2187 42.2859 92.8673 41.9779 93.418C41.6792 93.9687 41.2639 94.398 40.7319 94.706C40.1999 95.014 39.5979 95.168 38.9259 95.168ZM38.9259 93.964C39.3086 93.964 39.6539 93.8707 39.9619 93.684C40.2792 93.4973 40.5312 93.222 40.7179 92.858C40.9139 92.4847 41.0119 92.0227 41.0119 91.472C41.0119 90.9213 40.9186 90.464 40.7319 90.1C40.5452 89.7267 40.2932 89.4467 39.9759 89.26C39.6679 89.0733 39.3272 88.98 38.9539 88.98C38.5806 88.98 38.2352 89.0733 37.9179 89.26C37.6006 89.4467 37.3439 89.7267 37.1479 90.1C36.9612 90.464 36.8679 90.9213 36.8679 91.472C36.8679 92.0227 36.9612 92.4847 37.1479 92.858C37.3439 93.222 37.5959 93.4973 37.9039 93.684C38.2212 93.8707 38.5619 93.964 38.9259 93.964ZM48.5248 95L45.2768 91.136L48.2168 87.944H49.9108L46.4108 91.682V90.632L50.2888 95H48.5248ZM44.0868 95V84.92H45.4868V95H44.0868ZM54.1284 95.168C53.4564 95.168 52.859 95.014 52.3364 94.706C51.8137 94.398 51.403 93.9687 51.1044 93.418C50.815 92.8673 50.6704 92.228 50.6704 91.5C50.6704 90.7533 50.815 90.1047 51.1044 89.554C51.403 88.994 51.8137 88.56 52.3364 88.252C52.859 87.9347 53.4657 87.776 54.1564 87.776C54.847 87.776 55.4397 87.93 55.9344 88.238C56.429 88.546 56.8117 88.9567 57.0824 89.47C57.353 89.974 57.4884 90.534 57.4884 91.15C57.4884 91.2433 57.4837 91.346 57.4744 91.458C57.4744 91.5607 57.4697 91.6773 57.4604 91.808H51.6924V90.814H56.0884C56.0604 90.226 55.8644 89.7687 55.5004 89.442C55.1364 89.106 54.6837 88.938 54.1424 88.938C53.7597 88.938 53.4097 89.0267 53.0924 89.204C52.775 89.372 52.5184 89.624 52.3224 89.96C52.1357 90.2867 52.0424 90.702 52.0424 91.206V91.598C52.0424 92.1207 52.1357 92.564 52.3224 92.928C52.5184 93.2827 52.775 93.5533 53.0924 93.74C53.4097 93.9173 53.755 94.006 54.1284 94.006C54.5764 94.006 54.945 93.908 55.2344 93.712C55.5237 93.516 55.7384 93.25 55.8784 92.914H57.2784C57.157 93.3433 56.9517 93.7307 56.6624 94.076C56.373 94.412 56.0137 94.678 55.5844 94.874C55.1644 95.07 54.679 95.168 54.1284 95.168ZM59.0438 95V87.944H60.3038L60.3878 89.148C60.6118 88.728 60.9291 88.3967 61.3398 88.154C61.7505 87.902 62.2218 87.776 62.7538 87.776C63.3138 87.776 63.7945 87.888 64.1958 88.112C64.5971 88.336 64.9098 88.6767 65.1338 89.134C65.3578 89.582 65.4698 90.1467 65.4698 90.828V95H64.0698V90.968C64.0698 90.3147 63.9251 89.82 63.6358 89.484C63.3465 89.148 62.9265 88.98 62.3758 88.98C62.0118 88.98 61.6851 89.0687 61.3958 89.246C61.1065 89.414 60.8731 89.666 60.6958 90.002C60.5278 90.338 60.4438 90.7487 60.4438 91.234V95H59.0438ZM70.9126 95V85.2H72.3126L77.3106 92.718V85.2H78.7106V95H77.3106L72.3126 87.496V95H70.9126ZM83.0244 95.168C82.4457 95.168 81.965 95.07 81.5824 94.874C81.1997 94.678 80.915 94.4167 80.7284 94.09C80.5417 93.754 80.4484 93.3947 80.4484 93.012C80.4484 92.5453 80.5697 92.1487 80.8124 91.822C81.055 91.486 81.4004 91.2293 81.8484 91.052C82.2964 90.8747 82.833 90.786 83.4584 90.786H85.2924C85.2924 90.3753 85.2317 90.0347 85.1104 89.764C84.989 89.4933 84.807 89.2927 84.5644 89.162C84.331 89.022 84.0324 88.952 83.6684 88.952C83.2484 88.952 82.889 89.0547 82.5904 89.26C82.2917 89.456 82.105 89.75 82.0304 90.142H80.6304C80.6864 89.6473 80.8544 89.2273 81.1344 88.882C81.4237 88.5273 81.7924 88.2567 82.2404 88.07C82.6884 87.874 83.1644 87.776 83.6684 87.776C84.331 87.776 84.8864 87.8927 85.3344 88.126C85.7824 88.3593 86.1184 88.6907 86.3424 89.12C86.5757 89.54 86.6924 90.044 86.6924 90.632V95H85.4744L85.3624 93.81C85.2597 93.9967 85.1384 94.174 84.9984 94.342C84.8584 94.51 84.6904 94.6547 84.4944 94.776C84.3077 94.8973 84.0884 94.9907 83.8364 95.056C83.5937 95.1307 83.323 95.168 83.0244 95.168ZM83.2904 94.034C83.589 94.034 83.8597 93.9733 84.1024 93.852C84.345 93.7307 84.5504 93.5673 84.7184 93.362C84.8957 93.1473 85.0264 92.9093 85.1104 92.648C85.2037 92.3773 85.255 92.102 85.2644 91.822V91.78H83.5984C83.197 91.78 82.8704 91.8313 82.6184 91.934C82.3757 92.0273 82.1984 92.158 82.0864 92.326C81.9744 92.494 81.9184 92.69 81.9184 92.914C81.9184 93.1473 81.9697 93.348 82.0724 93.516C82.1844 93.6747 82.343 93.8007 82.5484 93.894C82.7537 93.9873 83.001 94.034 83.2904 94.034ZM88.4793 95V87.944H89.7393L89.8373 88.938C90.0613 88.574 90.36 88.2893 90.7333 88.084C91.1067 87.8787 91.5267 87.776 91.9933 87.776C92.348 87.776 92.67 87.8273 92.9593 87.93C93.2487 88.0233 93.5053 88.168 93.7293 88.364C93.9533 88.56 94.1353 88.8027 94.2753 89.092C94.5273 88.6813 94.8633 88.3593 95.2833 88.126C95.7127 87.8927 96.1653 87.776 96.6413 87.776C97.2107 87.776 97.7007 87.8927 98.1113 88.126C98.522 88.35 98.8347 88.6907 99.0493 89.148C99.264 89.596 99.3713 90.156 99.3713 90.828V95H97.9853V90.968C97.9853 90.3147 97.85 89.82 97.5793 89.484C97.318 89.148 96.9307 88.98 96.4173 88.98C96.072 88.98 95.764 89.0687 95.4933 89.246C95.2227 89.4233 95.008 89.68 94.8493 90.016C94.7 90.352 94.6253 90.7627 94.6253 91.248V95H93.2253V90.968C93.2253 90.3147 93.09 89.82 92.8193 89.484C92.558 89.148 92.1707 88.98 91.6573 88.98C91.3307 88.98 91.032 89.0687 90.7613 89.246C90.4907 89.4233 90.276 89.68 90.1173 90.016C89.9587 90.352 89.8793 90.7627 89.8793 91.248V95H88.4793ZM104.373 95.168C103.701 95.168 103.103 95.014 102.581 94.706C102.058 94.398 101.647 93.9687 101.349 93.418C101.059 92.8673 100.915 92.228 100.915 91.5C100.915 90.7533 101.059 90.1047 101.349 89.554C101.647 88.994 102.058 88.56 102.581 88.252C103.103 87.9347 103.71 87.776 104.401 87.776C105.091 87.776 105.684 87.93 106.179 88.238C106.673 88.546 107.056 88.9567 107.327 89.47C107.597 89.974 107.733 90.534 107.733 91.15C107.733 91.2433 107.728 91.346 107.719 91.458C107.719 91.5607 107.714 91.6773 107.705 91.808H101.937V90.814H106.333C106.305 90.226 106.109 89.7687 105.745 89.442C105.381 89.106 104.928 88.938 104.387 88.938C104.004 88.938 103.654 89.0267 103.337 89.204C103.019 89.372 102.763 89.624 102.567 89.96C102.38 90.2867 102.287 90.702 102.287 91.206V91.598C102.287 92.1207 102.38 92.564 102.567 92.928C102.763 93.2827 103.019 93.5533 103.337 93.74C103.654 93.9173 103.999 94.006 104.373 94.006C104.821 94.006 105.189 93.908 105.479 93.712C105.768 93.516 105.983 93.25 106.123 92.914H107.523C107.401 93.3433 107.196 93.7307 106.907 94.076C106.617 94.412 106.258 94.678 105.829 94.874C105.409 95.07 104.923 95.168 104.373 95.168Z" fill="white"/>
<path d="M294.32 95.168C293.359 95.168 292.528 94.958 291.828 94.538C291.137 94.1087 290.601 93.516 290.218 92.76C289.845 91.9947 289.658 91.108 289.658 90.1C289.658 89.1013 289.845 88.2193 290.218 87.454C290.601 86.6887 291.137 86.096 291.828 85.676C292.528 85.2467 293.359 85.032 294.32 85.032C295.468 85.032 296.397 85.3073 297.106 85.858C297.825 86.4087 298.282 87.1833 298.478 88.182H296.938C296.798 87.6033 296.509 87.1413 296.07 86.796C295.641 86.4507 295.057 86.278 294.32 86.278C293.657 86.278 293.083 86.432 292.598 86.74C292.113 87.048 291.739 87.4867 291.478 88.056C291.217 88.6253 291.086 89.3067 291.086 90.1C291.086 90.8933 291.217 91.5793 291.478 92.158C291.739 92.7273 292.113 93.166 292.598 93.474C293.083 93.7727 293.657 93.922 294.32 93.922C295.057 93.922 295.641 93.7587 296.07 93.432C296.509 93.096 296.798 92.6433 296.938 92.074H298.478C298.282 93.0447 297.825 93.8053 297.106 94.356C296.397 94.8973 295.468 95.168 294.32 95.168ZM302.421 95.168C301.842 95.168 301.362 95.07 300.979 94.874C300.596 94.678 300.312 94.4167 300.125 94.09C299.938 93.754 299.845 93.3947 299.845 93.012C299.845 92.5453 299.966 92.1487 300.209 91.822C300.452 91.486 300.797 91.2293 301.245 91.052C301.693 90.8747 302.23 90.786 302.855 90.786H304.689C304.689 90.3753 304.628 90.0347 304.507 89.764C304.386 89.4933 304.204 89.2927 303.961 89.162C303.728 89.022 303.429 88.952 303.065 88.952C302.645 88.952 302.286 89.0547 301.987 89.26C301.688 89.456 301.502 89.75 301.427 90.142H300.027C300.083 89.6473 300.251 89.2273 300.531 88.882C300.82 88.5273 301.189 88.2567 301.637 88.07C302.085 87.874 302.561 87.776 303.065 87.776C303.728 87.776 304.283 87.8927 304.731 88.126C305.179 88.3593 305.515 88.6907 305.739 89.12C305.972 89.54 306.089 90.044 306.089 90.632V95H304.871L304.759 93.81C304.656 93.9967 304.535 94.174 304.395 94.342C304.255 94.51 304.087 94.6547 303.891 94.776C303.704 94.8973 303.485 94.9907 303.233 95.056C302.99 95.1307 302.72 95.168 302.421 95.168ZM302.687 94.034C302.986 94.034 303.256 93.9733 303.499 93.852C303.742 93.7307 303.947 93.5673 304.115 93.362C304.292 93.1473 304.423 92.9093 304.507 92.648C304.6 92.3773 304.652 92.102 304.661 91.822V91.78H302.995C302.594 91.78 302.267 91.8313 302.015 91.934C301.772 92.0273 301.595 92.158 301.483 92.326C301.371 92.494 301.315 92.69 301.315 92.914C301.315 93.1473 301.366 93.348 301.469 93.516C301.581 93.6747 301.74 93.8007 301.945 93.894C302.15 93.9873 302.398 94.034 302.687 94.034ZM312.314 95L309.066 91.136L312.006 87.944H313.7L310.2 91.682V90.632L314.078 95H312.314ZM307.876 95V84.92H309.276V95H307.876ZM317.917 95.168C317.245 95.168 316.648 95.014 316.125 94.706C315.603 94.398 315.192 93.9687 314.893 93.418C314.604 92.8673 314.459 92.228 314.459 91.5C314.459 90.7533 314.604 90.1047 314.893 89.554C315.192 88.994 315.603 88.56 316.125 88.252C316.648 87.9347 317.255 87.776 317.945 87.776C318.636 87.776 319.229 87.93 319.723 88.238C320.218 88.546 320.601 88.9567 320.871 89.47C321.142 89.974 321.277 90.534 321.277 91.15C321.277 91.2433 321.273 91.346 321.263 91.458C321.263 91.5607 321.259 91.6773 321.249 91.808H315.481V90.814H319.877C319.849 90.226 319.653 89.7687 319.289 89.442C318.925 89.106 318.473 88.938 317.931 88.938C317.549 88.938 317.199 89.0267 316.881 89.204C316.564 89.372 316.307 89.624 316.111 89.96C315.925 90.2867 315.831 90.702 315.831 91.206V91.598C315.831 92.1207 315.925 92.564 316.111 92.928C316.307 93.2827 316.564 93.5533 316.881 93.74C317.199 93.9173 317.544 94.006 317.917 94.006C318.365 94.006 318.734 93.908 319.023 93.712C319.313 93.516 319.527 93.25 319.667 92.914H321.067C320.946 93.3433 320.741 93.7307 320.451 94.076C320.162 94.412 319.803 94.678 319.373 94.874C318.953 95.07 318.468 95.168 317.917 95.168Z" fill="#D9DADC"/>
<rect x="16.5" y="120.5" width="317" height="43" rx="7.5" stroke="white" stroke-opacity="0.15"/>
<path d="M31.304 147V138.348H28.406V137.2H35.616V138.348H32.704V147H31.304ZM38.9259 147.168C38.2632 147.168 37.6659 147.014 37.1339 146.706C36.6112 146.398 36.1959 145.969 35.8879 145.418C35.5892 144.858 35.4399 144.214 35.4399 143.486C35.4399 142.739 35.5939 142.091 35.9019 141.54C36.2099 140.98 36.6299 140.546 37.1619 140.238C37.6939 139.93 38.2912 139.776 38.9539 139.776C39.6259 139.776 40.2232 139.93 40.7459 140.238C41.2686 140.546 41.6792 140.975 41.9779 141.526C42.2859 142.077 42.4399 142.725 42.4399 143.472C42.4399 144.219 42.2859 144.867 41.9779 145.418C41.6792 145.969 41.2639 146.398 40.7319 146.706C40.1999 147.014 39.5979 147.168 38.9259 147.168ZM38.9259 145.964C39.3086 145.964 39.6539 145.871 39.9619 145.684C40.2792 145.497 40.5312 145.222 40.7179 144.858C40.9139 144.485 41.0119 144.023 41.0119 143.472C41.0119 142.921 40.9186 142.464 40.7319 142.1C40.5452 141.727 40.2932 141.447 39.9759 141.26C39.6679 141.073 39.3272 140.98 38.9539 140.98C38.5806 140.98 38.2352 141.073 37.9179 141.26C37.6006 141.447 37.3439 141.727 37.1479 142.1C36.9612 142.464 36.8679 142.921 36.8679 143.472C36.8679 144.023 36.9612 144.485 37.1479 144.858C37.3439 145.222 37.5959 145.497 37.9039 145.684C38.2212 145.871 38.5619 145.964 38.9259 145.964ZM48.5248 147L45.2768 143.136L48.2168 139.944H49.9108L46.4108 143.682V142.632L50.2888 147H48.5248ZM44.0868 147V136.92H45.4868V147H44.0868ZM54.1284 147.168C53.4564 147.168 52.859 147.014 52.3364 146.706C51.8137 146.398 51.403 145.969 51.1044 145.418C50.815 144.867 50.6704 144.228 50.6704 143.5C50.6704 142.753 50.815 142.105 51.1044 141.554C51.403 140.994 51.8137 140.56 52.3364 140.252C52.859 139.935 53.4657 139.776 54.1564 139.776C54.847 139.776 55.4397 139.93 55.9344 140.238C56.429 140.546 56.8117 140.957 57.0824 141.47C57.353 141.974 57.4884 142.534 57.4884 143.15C57.4884 143.243 57.4837 143.346 57.4744 143.458C57.4744 143.561 57.4697 143.677 57.4604 143.808H51.6924V142.814H56.0884C56.0604 142.226 55.8644 141.769 55.5004 141.442C55.1364 141.106 54.6837 140.938 54.1424 140.938C53.7597 140.938 53.4097 141.027 53.0924 141.204C52.775 141.372 52.5184 141.624 52.3224 141.96C52.1357 142.287 52.0424 142.702 52.0424 143.206V143.598C52.0424 144.121 52.1357 144.564 52.3224 144.928C52.5184 145.283 52.775 145.553 53.0924 145.74C53.4097 145.917 53.755 146.006 54.1284 146.006C54.5764 146.006 54.945 145.908 55.2344 145.712C55.5237 145.516 55.7384 145.25 55.8784 144.914H57.2784C57.157 145.343 56.9517 145.731 56.6624 146.076C56.373 146.412 56.0137 146.678 55.5844 146.874C55.1644 147.07 54.679 147.168 54.1284 147.168ZM59.0438 147V139.944H60.3038L60.3878 141.148C60.6118 140.728 60.9291 140.397 61.3398 140.154C61.7505 139.902 62.2218 139.776 62.7538 139.776C63.3138 139.776 63.7945 139.888 64.1958 140.112C64.5971 140.336 64.9098 140.677 65.1338 141.134C65.3578 141.582 65.4698 142.147 65.4698 142.828V147H64.0698V142.968C64.0698 142.315 63.9251 141.82 63.6358 141.484C63.3465 141.148 62.9265 140.98 62.3758 140.98C62.0118 140.98 61.6851 141.069 61.3958 141.246C61.1065 141.414 60.8731 141.666 60.6958 142.002C60.5278 142.338 60.4438 142.749 60.4438 143.234V147H59.0438ZM74.1186 147.168C73.4 147.168 72.77 147.042 72.2286 146.79C71.6873 146.529 71.2673 146.165 70.9686 145.698C70.67 145.231 70.5206 144.685 70.5206 144.06H71.9906C72 144.415 72.084 144.741 72.2426 145.04C72.4106 145.329 72.6486 145.563 72.9566 145.74C73.274 145.908 73.6613 145.992 74.1186 145.992C74.5106 145.992 74.8466 145.927 75.1266 145.796C75.416 145.665 75.6353 145.488 75.7846 145.264C75.934 145.031 76.0086 144.765 76.0086 144.466C76.0086 144.121 75.9293 143.836 75.7706 143.612C75.612 143.388 75.3973 143.206 75.1266 143.066C74.8653 142.917 74.5573 142.786 74.2026 142.674C73.8573 142.562 73.4933 142.441 73.1106 142.31C72.336 142.058 71.7573 141.731 71.3746 141.33C71.0013 140.929 70.8146 140.406 70.8146 139.762C70.8146 139.211 70.9453 138.735 71.2066 138.334C71.468 137.923 71.832 137.606 72.2986 137.382C72.7746 137.149 73.3346 137.032 73.9786 137.032C74.6133 137.032 75.1686 137.149 75.6446 137.382C76.1206 137.615 76.494 137.937 76.7646 138.348C77.0353 138.759 77.1706 139.239 77.1706 139.79H75.6866C75.6866 139.538 75.6213 139.291 75.4906 139.048C75.36 138.805 75.164 138.609 74.9026 138.46C74.6413 138.301 74.3193 138.222 73.9366 138.222C73.6193 138.213 73.3346 138.264 73.0826 138.376C72.8306 138.488 72.6346 138.651 72.4946 138.866C72.3546 139.081 72.2846 139.337 72.2846 139.636C72.2846 139.935 72.3453 140.177 72.4666 140.364C72.5973 140.541 72.784 140.695 73.0266 140.826C73.2693 140.957 73.5493 141.078 73.8666 141.19C74.1933 141.293 74.5526 141.409 74.9446 141.54C75.43 141.699 75.8593 141.895 76.2326 142.128C76.6153 142.352 76.914 142.646 77.1286 143.01C77.3526 143.365 77.4646 143.822 77.4646 144.382C77.4646 144.867 77.3386 145.32 77.0866 145.74C76.8346 146.16 76.4613 146.505 75.9666 146.776C75.472 147.037 74.856 147.168 74.1186 147.168ZM79.8714 150.08L81.5934 146.216H81.1874L78.4014 139.944H79.9134L82.1254 145.068L84.3514 139.944H85.8214L81.3414 150.08H79.8714ZM87.0575 147V139.944H88.3175L88.4155 140.938C88.6395 140.574 88.9381 140.289 89.3115 140.084C89.6848 139.879 90.1048 139.776 90.5715 139.776C90.9261 139.776 91.2481 139.827 91.5375 139.93C91.8268 140.023 92.0835 140.168 92.3075 140.364C92.5315 140.56 92.7135 140.803 92.8535 141.092C93.1055 140.681 93.4415 140.359 93.8615 140.126C94.2908 139.893 94.7435 139.776 95.2195 139.776C95.7888 139.776 96.2788 139.893 96.6895 140.126C97.1001 140.35 97.4128 140.691 97.6275 141.148C97.8421 141.596 97.9495 142.156 97.9495 142.828V147H96.5635V142.968C96.5635 142.315 96.4281 141.82 96.1575 141.484C95.8961 141.148 95.5088 140.98 94.9955 140.98C94.6501 140.98 94.3421 141.069 94.0715 141.246C93.8008 141.423 93.5861 141.68 93.4275 142.016C93.2781 142.352 93.2035 142.763 93.2035 143.248V147H91.8035V142.968C91.8035 142.315 91.6681 141.82 91.3975 141.484C91.1361 141.148 90.7488 140.98 90.2355 140.98C89.9088 140.98 89.6101 141.069 89.3395 141.246C89.0688 141.423 88.8541 141.68 88.6955 142.016C88.5368 142.352 88.4575 142.763 88.4575 143.248V147H87.0575ZM103.609 147.168C103.226 147.168 102.876 147.112 102.559 147C102.251 146.897 101.98 146.753 101.747 146.566C101.513 146.379 101.317 146.165 101.159 145.922L101.019 147H99.7586V136.92H101.159V141.05C101.383 140.695 101.695 140.397 102.097 140.154C102.507 139.902 103.011 139.776 103.609 139.776C104.281 139.776 104.873 139.939 105.387 140.266C105.9 140.583 106.297 141.022 106.577 141.582C106.866 142.133 107.011 142.767 107.011 143.486C107.011 144.186 106.866 144.816 106.577 145.376C106.297 145.936 105.9 146.375 105.387 146.692C104.873 147.009 104.281 147.168 103.609 147.168ZM103.385 145.95C103.814 145.95 104.192 145.847 104.519 145.642C104.855 145.437 105.116 145.147 105.303 144.774C105.499 144.401 105.597 143.967 105.597 143.472C105.597 142.977 105.499 142.548 105.303 142.184C105.116 141.811 104.855 141.521 104.519 141.316C104.192 141.101 103.814 140.994 103.385 140.994C102.946 140.994 102.559 141.101 102.223 141.316C101.896 141.521 101.639 141.811 101.453 142.184C101.266 142.548 101.173 142.977 101.173 143.472C101.173 143.967 101.266 144.401 101.453 144.774C101.639 145.147 101.896 145.437 102.223 145.642C102.559 145.847 102.946 145.95 103.385 145.95ZM111.865 147.168C111.203 147.168 110.605 147.014 110.073 146.706C109.551 146.398 109.135 145.969 108.827 145.418C108.529 144.858 108.379 144.214 108.379 143.486C108.379 142.739 108.533 142.091 108.841 141.54C109.149 140.98 109.569 140.546 110.101 140.238C110.633 139.93 111.231 139.776 111.893 139.776C112.565 139.776 113.163 139.93 113.685 140.238C114.208 140.546 114.619 140.975 114.917 141.526C115.225 142.077 115.379 142.725 115.379 143.472C115.379 144.219 115.225 144.867 114.917 145.418C114.619 145.969 114.203 146.398 113.671 146.706C113.139 147.014 112.537 147.168 111.865 147.168ZM111.865 145.964C112.248 145.964 112.593 145.871 112.901 145.684C113.219 145.497 113.471 145.222 113.657 144.858C113.853 144.485 113.951 144.023 113.951 143.472C113.951 142.921 113.858 142.464 113.671 142.1C113.485 141.727 113.233 141.447 112.915 141.26C112.607 141.073 112.267 140.98 111.893 140.98C111.52 140.98 111.175 141.073 110.857 141.26C110.54 141.447 110.283 141.727 110.087 142.1C109.901 142.464 109.807 142.921 109.807 143.472C109.807 144.023 109.901 144.485 110.087 144.858C110.283 145.222 110.535 145.497 110.843 145.684C111.161 145.871 111.501 145.964 111.865 145.964ZM117.026 147V136.92H118.426V147H117.026Z" fill="white"/>
<path d="M294.32 147.168C293.359 147.168 292.528 146.958 291.828 146.538C291.137 146.109 290.601 145.516 290.218 144.76C289.845 143.995 289.658 143.108 289.658 142.1C289.658 141.101 289.845 140.219 290.218 139.454C290.601 138.689 291.137 138.096 291.828 137.676C292.528 137.247 293.359 137.032 294.32 137.032C295.468 137.032 296.397 137.307 297.106 137.858C297.825 138.409 298.282 139.183 298.478 140.182H296.938C296.798 139.603 296.509 139.141 296.07 138.796C295.641 138.451 295.057 138.278 294.32 138.278C293.657 138.278 293.083 138.432 292.598 138.74C292.113 139.048 291.739 139.487 291.478 140.056C291.217 140.625 291.086 141.307 291.086 142.1C291.086 142.893 291.217 143.579 291.478 144.158C291.739 144.727 292.113 145.166 292.598 145.474C293.083 145.773 293.657 145.922 294.32 145.922C295.057 145.922 295.641 145.759 296.07 145.432C296.509 145.096 296.798 144.643 296.938 144.074H298.478C298.282 145.045 297.825 145.805 297.106 146.356C296.397 146.897 295.468 147.168 294.32 147.168ZM302.421 147.168C301.842 147.168 301.362 147.07 300.979 146.874C300.596 146.678 300.312 146.417 300.125 146.09C299.938 145.754 299.845 145.395 299.845 145.012C299.845 144.545 299.966 144.149 300.209 143.822C300.452 143.486 300.797 143.229 301.245 143.052C301.693 142.875 302.23 142.786 302.855 142.786H304.689C304.689 142.375 304.628 142.035 304.507 141.764C304.386 141.493 304.204 141.293 303.961 141.162C303.728 141.022 303.429 140.952 303.065 140.952C302.645 140.952 302.286 141.055 301.987 141.26C301.688 141.456 301.502 141.75 301.427 142.142H300.027C300.083 141.647 300.251 141.227 300.531 140.882C300.82 140.527 301.189 140.257 301.637 140.07C302.085 139.874 302.561 139.776 303.065 139.776C303.728 139.776 304.283 139.893 304.731 140.126C305.179 140.359 305.515 140.691 305.739 141.12C305.972 141.54 306.089 142.044 306.089 142.632V147H304.871L304.759 145.81C304.656 145.997 304.535 146.174 304.395 146.342C304.255 146.51 304.087 146.655 303.891 146.776C303.704 146.897 303.485 146.991 303.233 147.056C302.99 147.131 302.72 147.168 302.421 147.168ZM302.687 146.034C302.986 146.034 303.256 145.973 303.499 145.852C303.742 145.731 303.947 145.567 304.115 145.362C304.292 145.147 304.423 144.909 304.507 144.648C304.6 144.377 304.652 144.102 304.661 143.822V143.78H302.995C302.594 143.78 302.267 143.831 302.015 143.934C301.772 144.027 301.595 144.158 301.483 144.326C301.371 144.494 301.315 144.69 301.315 144.914C301.315 145.147 301.366 145.348 301.469 145.516C301.581 145.675 301.74 145.801 301.945 145.894C302.15 145.987 302.398 146.034 302.687 146.034ZM312.314 147L309.066 143.136L312.006 139.944H313.7L310.2 143.682V142.632L314.078 147H312.314ZM307.876 147V136.92H309.276V147H307.876ZM317.917 147.168C317.245 147.168 316.648 147.014 316.125 146.706C315.603 146.398 315.192 145.969 314.893 145.418C314.604 144.867 314.459 144.228 314.459 143.5C314.459 142.753 314.604 142.105 314.893 141.554C315.192 140.994 315.603 140.56 316.125 140.252C316.648 139.935 317.255 139.776 317.945 139.776C318.636 139.776 319.229 139.93 319.723 140.238C320.218 140.546 320.601 140.957 320.871 141.47C321.142 141.974 321.277 142.534 321.277 143.15C321.277 143.243 321.273 143.346 321.263 143.458C321.263 143.561 321.259 143.677 321.249 143.808H315.481V142.814H319.877C319.849 142.226 319.653 141.769 319.289 141.442C318.925 141.106 318.473 140.938 317.931 140.938C317.549 140.938 317.199 141.027 316.881 141.204C316.564 141.372 316.307 141.624 316.111 141.96C315.925 142.287 315.831 142.702 315.831 143.206V143.598C315.831 144.121 315.925 144.564 316.111 144.928C316.307 145.283 316.564 145.553 316.881 145.74C317.199 145.917 317.544 146.006 317.917 146.006C318.365 146.006 318.734 145.908 319.023 145.712C319.313 145.516 319.527 145.25 319.667 144.914H321.067C320.946 145.343 320.741 145.731 320.451 146.076C320.162 146.412 319.803 146.678 319.373 146.874C318.953 147.07 318.468 147.168 317.917 147.168Z" fill="#D9DADC"/>
<rect x="16.5" y="172.5" width="317" height="43" rx="7.5" stroke="white" stroke-opacity="0.15"/>
<path d="M34.886 199V190.348H31.988V189.2H39.198V190.348H36.286V199H34.886ZM42.5079 199.168C41.8453 199.168 41.2479 199.014 40.7159 198.706C40.1933 198.398 39.7779 197.969 39.4699 197.418C39.1713 196.858 39.0219 196.214 39.0219 195.486C39.0219 194.739 39.1759 194.091 39.4839 193.54C39.7919 192.98 40.2119 192.546 40.7439 192.238C41.2759 191.93 41.8733 191.776 42.5359 191.776C43.2079 191.776 43.8053 191.93 44.3279 192.238C44.8506 192.546 45.2613 192.975 45.5599 193.526C45.8679 194.077 46.0219 194.725 46.0219 195.472C46.0219 196.219 45.8679 196.867 45.5599 197.418C45.2613 197.969 44.8459 198.398 44.3139 198.706C43.7819 199.014 43.1799 199.168 42.5079 199.168ZM42.5079 197.964C42.8906 197.964 43.2359 197.871 43.5439 197.684C43.8613 197.497 44.1133 197.222 44.2999 196.858C44.4959 196.485 44.5939 196.023 44.5939 195.472C44.5939 194.921 44.5006 194.464 44.3139 194.1C44.1273 193.727 43.8753 193.447 43.5579 193.26C43.2499 193.073 42.9093 192.98 42.5359 192.98C42.1626 192.98 41.8173 193.073 41.4999 193.26C41.1826 193.447 40.9259 193.727 40.7299 194.1C40.5433 194.464 40.4499 194.921 40.4499 195.472C40.4499 196.023 40.5433 196.485 40.7299 196.858C40.9259 197.222 41.1779 197.497 41.4859 197.684C41.8033 197.871 42.1439 197.964 42.5079 197.964ZM50.3074 199C49.8594 199 49.472 198.93 49.1454 198.79C48.8187 198.65 48.5667 198.417 48.3894 198.09C48.212 197.763 48.1234 197.32 48.1234 196.76V193.134H46.9054V191.944H48.1234L48.2914 190.18H49.5234V191.944H51.5254V193.134H49.5234V196.774C49.5234 197.175 49.6074 197.451 49.7754 197.6C49.9434 197.74 50.2327 197.81 50.6434 197.81H51.4554V199H50.3074ZM55.4072 199.168C54.8285 199.168 54.3479 199.07 53.9652 198.874C53.5825 198.678 53.2979 198.417 53.1112 198.09C52.9245 197.754 52.8312 197.395 52.8312 197.012C52.8312 196.545 52.9525 196.149 53.1952 195.822C53.4379 195.486 53.7832 195.229 54.2312 195.052C54.6792 194.875 55.2159 194.786 55.8412 194.786H57.6752C57.6752 194.375 57.6145 194.035 57.4932 193.764C57.3719 193.493 57.1899 193.293 56.9472 193.162C56.7139 193.022 56.4152 192.952 56.0512 192.952C55.6312 192.952 55.2719 193.055 54.9732 193.26C54.6745 193.456 54.4879 193.75 54.4132 194.142H53.0132C53.0692 193.647 53.2372 193.227 53.5172 192.882C53.8065 192.527 54.1752 192.257 54.6232 192.07C55.0712 191.874 55.5472 191.776 56.0512 191.776C56.7139 191.776 57.2692 191.893 57.7172 192.126C58.1652 192.359 58.5012 192.691 58.7252 193.12C58.9585 193.54 59.0752 194.044 59.0752 194.632V199H57.8572L57.7452 197.81C57.6425 197.997 57.5212 198.174 57.3812 198.342C57.2412 198.51 57.0732 198.655 56.8772 198.776C56.6905 198.897 56.4712 198.991 56.2192 199.056C55.9765 199.131 55.7059 199.168 55.4072 199.168ZM55.6732 198.034C55.9719 198.034 56.2425 197.973 56.4852 197.852C56.7279 197.731 56.9332 197.567 57.1012 197.362C57.2785 197.147 57.4092 196.909 57.4932 196.648C57.5865 196.377 57.6379 196.102 57.6472 195.822V195.78H55.9812C55.5799 195.78 55.2532 195.831 55.0012 195.934C54.7585 196.027 54.5812 196.158 54.4692 196.326C54.3572 196.494 54.3012 196.69 54.3012 196.914C54.3012 197.147 54.3525 197.348 54.4552 197.516C54.5672 197.675 54.7259 197.801 54.9312 197.894C55.1365 197.987 55.3839 198.034 55.6732 198.034ZM60.8622 199V188.92H62.2622V199H60.8622ZM71.0425 199.168C70.3238 199.168 69.6938 199.042 69.1525 198.79C68.6111 198.529 68.1911 198.165 67.8925 197.698C67.5938 197.231 67.4445 196.685 67.4445 196.06H68.9145C68.9238 196.415 69.0078 196.741 69.1665 197.04C69.3345 197.329 69.5725 197.563 69.8805 197.74C70.1978 197.908 70.5851 197.992 71.0425 197.992C71.4345 197.992 71.7705 197.927 72.0505 197.796C72.3398 197.665 72.5591 197.488 72.7085 197.264C72.8578 197.031 72.9325 196.765 72.9325 196.466C72.9325 196.121 72.8531 195.836 72.6945 195.612C72.5358 195.388 72.3211 195.206 72.0505 195.066C71.7891 194.917 71.4811 194.786 71.1265 194.674C70.7811 194.562 70.4171 194.441 70.0345 194.31C69.2598 194.058 68.6811 193.731 68.2985 193.33C67.9251 192.929 67.7385 192.406 67.7385 191.762C67.7385 191.211 67.8691 190.735 68.1305 190.334C68.3918 189.923 68.7558 189.606 69.2225 189.382C69.6985 189.149 70.2585 189.032 70.9025 189.032C71.5371 189.032 72.0925 189.149 72.5685 189.382C73.0445 189.615 73.4178 189.937 73.6885 190.348C73.9591 190.759 74.0945 191.239 74.0945 191.79H72.6105C72.6105 191.538 72.5451 191.291 72.4145 191.048C72.2838 190.805 72.0878 190.609 71.8265 190.46C71.5651 190.301 71.2431 190.222 70.8605 190.222C70.5431 190.213 70.2585 190.264 70.0065 190.376C69.7545 190.488 69.5585 190.651 69.4185 190.866C69.2785 191.081 69.2085 191.337 69.2085 191.636C69.2085 191.935 69.2691 192.177 69.3905 192.364C69.5211 192.541 69.7078 192.695 69.9505 192.826C70.1931 192.957 70.4731 193.078 70.7905 193.19C71.1171 193.293 71.4765 193.409 71.8685 193.54C72.3538 193.699 72.7831 193.895 73.1565 194.128C73.5391 194.352 73.8378 194.646 74.0525 195.01C74.2765 195.365 74.3885 195.822 74.3885 196.382C74.3885 196.867 74.2625 197.32 74.0105 197.74C73.7585 198.16 73.3851 198.505 72.8905 198.776C72.3958 199.037 71.7798 199.168 71.0425 199.168ZM78.5733 199.168C78.0226 199.168 77.5419 199.056 77.1313 198.832C76.7299 198.608 76.4173 198.272 76.1933 197.824C75.9786 197.376 75.8713 196.811 75.8713 196.13V191.944H77.2713V195.976C77.2713 196.639 77.4159 197.138 77.7053 197.474C77.9946 197.81 78.4099 197.978 78.9513 197.978C79.3153 197.978 79.6419 197.889 79.9313 197.712C80.2299 197.535 80.4633 197.278 80.6313 196.942C80.7993 196.606 80.8833 196.195 80.8833 195.71V191.944H82.2833V199H81.0373L80.9393 197.796C80.7246 198.225 80.4119 198.561 80.0013 198.804C79.5906 199.047 79.1146 199.168 78.5733 199.168ZM84.2 202.08V191.944H85.46L85.6 193.036C85.7494 192.821 85.936 192.621 86.16 192.434C86.384 192.238 86.65 192.079 86.958 191.958C87.2754 191.837 87.644 191.776 88.064 191.776C88.736 191.776 89.324 191.939 89.828 192.266C90.3414 192.593 90.738 193.036 91.018 193.596C91.3074 194.147 91.452 194.777 91.452 195.486C91.452 196.195 91.3074 196.83 91.018 197.39C90.7287 197.941 90.3274 198.375 89.814 198.692C89.31 199.009 88.722 199.168 88.05 199.168C87.4994 199.168 87.014 199.061 86.594 198.846C86.174 198.622 85.8427 198.314 85.6 197.922V202.08H84.2ZM87.826 197.95C88.2554 197.95 88.6334 197.847 88.96 197.642C89.296 197.437 89.5574 197.147 89.744 196.774C89.94 196.401 90.038 195.967 90.038 195.472C90.038 194.977 89.94 194.548 89.744 194.184C89.5574 193.811 89.296 193.521 88.96 193.316C88.6334 193.101 88.2554 192.994 87.826 192.994C87.3874 192.994 87 193.101 86.664 193.316C86.3374 193.521 86.0807 193.811 85.894 194.184C85.7074 194.548 85.614 194.977 85.614 195.472C85.614 195.967 85.7074 196.401 85.894 196.774C86.0807 197.147 86.3374 197.437 86.664 197.642C87 197.847 87.3874 197.95 87.826 197.95ZM93.0868 202.08V191.944H94.3468L94.4868 193.036C94.6361 192.821 94.8228 192.621 95.0468 192.434C95.2708 192.238 95.5368 192.079 95.8448 191.958C96.1621 191.837 96.5308 191.776 96.9508 191.776C97.6228 191.776 98.2108 191.939 98.7148 192.266C99.2281 192.593 99.6248 193.036 99.9048 193.596C100.194 194.147 100.339 194.777 100.339 195.486C100.339 196.195 100.194 196.83 99.9048 197.39C99.6154 197.941 99.2141 198.375 98.7008 198.692C98.1968 199.009 97.6088 199.168 96.9368 199.168C96.3861 199.168 95.9008 199.061 95.4808 198.846C95.0608 198.622 94.7294 198.314 94.4868 197.922V202.08H93.0868ZM96.7128 197.95C97.1421 197.95 97.5201 197.847 97.8468 197.642C98.1828 197.437 98.4441 197.147 98.6308 196.774C98.8268 196.401 98.9248 195.967 98.9248 195.472C98.9248 194.977 98.8268 194.548 98.6308 194.184C98.4441 193.811 98.1828 193.521 97.8468 193.316C97.5201 193.101 97.1421 192.994 96.7128 192.994C96.2741 192.994 95.8868 193.101 95.5508 193.316C95.2241 193.521 94.9674 193.811 94.7808 194.184C94.5941 194.548 94.5008 194.977 94.5008 195.472C94.5008 195.967 94.5941 196.401 94.7808 196.774C94.9674 197.147 95.2241 197.437 95.5508 197.642C95.8868 197.847 96.2741 197.95 96.7128 197.95ZM101.973 199V188.92H103.373V199H101.973ZM106.108 202.08L107.83 198.216H107.424L104.638 191.944H106.15L108.362 197.068L110.588 191.944H112.058L107.578 202.08H106.108Z" fill="white"/>
<path d="M317.13 199.168C316.505 199.168 315.931 199.056 315.408 198.832C314.895 198.599 314.484 198.253 314.176 197.796C313.877 197.329 313.719 196.746 313.7 196.046H315.1C315.109 196.401 315.193 196.723 315.352 197.012C315.511 197.301 315.739 197.535 316.038 197.712C316.346 197.88 316.71 197.964 317.13 197.964C317.55 197.964 317.9 197.885 318.18 197.726C318.469 197.567 318.684 197.353 318.824 197.082C318.973 196.811 319.048 196.508 319.048 196.172C319.048 195.752 318.945 195.411 318.74 195.15C318.544 194.889 318.273 194.693 317.928 194.562C317.592 194.431 317.214 194.366 316.794 194.366H316.066V193.19H316.794C317.382 193.19 317.849 193.055 318.194 192.784C318.549 192.513 318.726 192.131 318.726 191.636C318.726 191.225 318.591 190.889 318.32 190.628C318.049 190.367 317.653 190.236 317.13 190.236C316.607 190.236 316.192 190.385 315.884 190.684C315.585 190.983 315.417 191.361 315.38 191.818H313.994C314.022 191.267 314.167 190.782 314.428 190.362C314.699 189.933 315.063 189.606 315.52 189.382C315.987 189.149 316.523 189.032 317.13 189.032C317.783 189.032 318.329 189.149 318.768 189.382C319.216 189.606 319.552 189.909 319.776 190.292C320.009 190.675 320.126 191.095 320.126 191.552C320.126 191.897 320.061 192.219 319.93 192.518C319.799 192.807 319.613 193.059 319.37 193.274C319.127 193.489 318.833 193.643 318.488 193.736C318.861 193.811 319.197 193.955 319.496 194.17C319.795 194.385 320.028 194.665 320.196 195.01C320.364 195.346 320.448 195.738 320.448 196.186C320.448 196.718 320.322 197.213 320.07 197.67C319.818 198.118 319.445 198.482 318.95 198.762C318.465 199.033 317.858 199.168 317.13 199.168Z" fill="#D9DADC"/>
</svg>
